<?xml version="1.0" encoding="UTF-8"?> <svg xmlns="http://www.w3.org/2000/svg" xmlns:xlink="http://www.w3.org/1999/xlink" width="18" height="18" viewBox="0 0 18 18"><defs><clipPath id="clip-path"><rect id="Rectangle_4130" data-name="Rectangle 4130" width="16.036" height="16.132" transform="translate(0 0)" fill="none"></rect></clipPath></defs><g id="Group_8919" data-name="Group 8919" transform="translate(-7030 -5390)"><circle id="Ellipse_1551" data-name="Ellipse 1551" cx="9" cy="9" r="9" transform="translate(7030 5390)" fill="#fff"></circle><g id="Group_8894" data-name="Group 8894" transform="translate(7031 5391)"><g id="Group_8893" data-name="Group 8893" transform="translate(0 0)"><g id="Group_8892" data-name="Group 8892" clip-path="url(#clip-path)"><path id="Path_12143" data-name="Path 12143" d="M16.036,7.981v.04c0,.043,0,.084,0,.128,0,.026,0,.053,0,.077v.038c0,.066,0,.128-.006.193a7.923,7.923,0,0,1-.43,2.264c-.008.028-.016.055-.026.079-.045.125-.089.247-.14.371a8.028,8.028,0,0,1-8.913,4.821,7.87,7.87,0,0,1-1.6-.481c-.071-.03-.138-.058-.206-.089A8.039,8.039,0,0,1,.5,10.894c-.01-.03-.023-.063-.034-.094s-.015-.051-.025-.079A7.855,7.855,0,0,1,0,8.264V8.227a.594.594,0,0,1,0-.077c0-.044,0-.086,0-.128V7.983a.557.557,0,0,1,0-.076V7.851c0-.03,0-.059,0-.089s0-.067,0-.1c0-.11.011-.221.021-.33,0-.015,0-.03,0-.044.012-.105.021-.211.036-.315a.307.307,0,0,1,.008-.058c.011-.082.023-.166.038-.247.018-.109.038-.214.061-.32s.046-.208.074-.31A.289.289,0,0,0,.257,6c.018-.071.038-.138.059-.208s.033-.12.053-.178c.044-.147.1-.293.152-.435.023-.069.049-.135.077-.2s.053-.125.081-.186A8.009,8.009,0,0,1,4.714.716C4.755.695,4.8.676,4.836.66A8.09,8.09,0,0,1,6.4.164l.021,0c.061-.013.124-.027.186-.036.082-.015.165-.027.25-.04A8.143,8.143,0,0,1,8.019,0,8.266,8.266,0,0,1,9.184.085c.077.013.156.025.234.04a2.041,2.041,0,0,1,.2.039,8.032,8.032,0,0,1,5.609,4.35c.071.152.14.3.2.463.026.068.054.133.079.2A7.943,7.943,0,0,1,16,7.307c.01.107.018.213.025.32,0,.046,0,.091,0,.135,0,.02,0,.041,0,.063a.072.072,0,0,1,0,.026v.056c0,.025,0,.049,0,.074" transform="translate(0 -0.001)" fill="#28292b"></path><path id="Path_12144" data-name="Path 12144" d="M16.036,57.838v.04c0,.043,0,.084,0,.128,0,.026,0,.053,0,.077v.038c0,.066,0,.128-.006.193a7.923,7.923,0,0,1-.43,2.264c-.008.028-.016.055-.026.079-.045.125-.089.247-.14.371a8.028,8.028,0,0,1-8.913,4.821,7.87,7.87,0,0,1-1.6-.481c-.071-.03-.138-.058-.206-.089A8.039,8.039,0,0,1,.5,60.751c-.01-.03-.023-.063-.034-.094s-.015-.051-.025-.079A7.855,7.855,0,0,1,0,58.122v-.038a.594.594,0,0,1,0-.077c0-.044,0-.086,0-.128V57.84a.557.557,0,0,1,0-.076v-.056c0-.03,0-.059,0-.089H16.029c0,.02,0,.041,0,.063a.072.072,0,0,1,0,.026v.056c0,.025,0,.049,0,.074" transform="translate(0 -49.858)" fill="#fff915"></path><path id="Path_12145" data-name="Path 12145" d="M16.036,41.251v.04c0,.043,0,.084,0,.128,0,.026,0,.053,0,.077v.038c0,.066,0,.128-.006.193a7.923,7.923,0,0,1-.43,2.264c-.008.028-.016.055-.026.079H.461c-.008-.025-.015-.051-.025-.079A7.855,7.855,0,0,1,0,41.535V41.5a.594.594,0,0,1,0-.077c0-.044,0-.086,0-.128v-.038a.557.557,0,0,1,0-.076v-.056c0-.03,0-.059,0-.089s0-.067,0-.1c0-.11.011-.221.021-.33,0-.015,0-.03,0-.044.012-.105.021-.211.036-.315a.308.308,0,0,1,.008-.058c.011-.082.023-.166.038-.247.018-.109.038-.214.061-.32s.046-.208.074-.31a.289.289,0,0,0,.007-.036c.018-.071.038-.138.059-.208s.033-.12.053-.178c.044-.147.1-.293.152-.435H15.513A7.943,7.943,0,0,1,16,40.577c.01.107.018.213.025.32,0,.046,0,.091,0,.135,0,.02,0,.041,0,.063a.072.072,0,0,1,0,.026v.056c0,.025,0,.049,0,.074" transform="translate(0 -33.271)" fill="#dd3131"></path></g></g></g></g></svg> 