<?xml version="1.0" encoding="UTF-8"?> <svg xmlns="http://www.w3.org/2000/svg" xmlns:xlink="http://www.w3.org/1999/xlink" version="1.1" id="Layer_1" x="0px" y="0px" width="627px" height="121px" viewBox="0 0 627 121" style="enable-background:new 0 0 627 121;" xml:space="preserve"> <style type="text/css"> .st0{enable-background:new ;} .st1{fill:#CBFC4E;} </style> <g class="st0"> <path class="st1" d="M7.8,95.4c-2,0-4.4-0.3-7.3-0.8H0.3v-0.2c0.1-0.1,2-2,5.6-5.8c3.6-3.8,5.5-5.8,5.5-6.1c-0.3-0.9-0.7-1.7-1-2.4 c-0.7-1.3-1.1-2.5-1.1-3.7c0-2.1,1.1-5.9,3.3-11.4c2.2-5.6,6.4-14.9,12.6-28c0.2-0.2,0.3-0.5,0.3-0.8c0-0.2-0.1-0.3-0.2-0.5 c0-0.3,0.5-1.4,1.5-3.1c0.8-1.2,1.2-2,1.2-2.3c-0.3,0.1-1.4,0.4-3.3,1.1c-3.3,1.2-4.9,1.9-4.9,2.3c0,0.2,0.1,0.4,0.3,0.6 s0.3,0.3,0.3,0.5c0,0.2-0.5,0.3-1.4,0.3c-1.2,0-3.7-0.2-7.4-0.5c-1.8-0.2-2.6-0.5-2.6-0.9c0-0.1,0.1-0.3,0.2-0.4 c1.5-1.9,3.1-3.5,4.6-4.8c3.3-2.8,9.4-5.3,18.3-7.4c6.1-1.4,11-2.1,14.5-2.1c2.8,0,5,0.4,6.5,1.1s2.7,1.6,3.4,2.8 c0.8,1.1,1.4,2.4,1.9,3.7c0.5,1,1,2,1.5,3c0.8,1.5,1.2,3,1.2,4.5c0,3.8-2.3,8.6-6.8,14.5l-0.6,1c-0.2,0-0.7,0.6-1.6,1.9 C45.3,60.3,31.2,74.9,9.8,95C9.4,95.2,8.7,95.4,7.8,95.4z M18.3,76.2l0.2-0.2c0.7-0.6,2.2-2,4.7-4.3c2.4-2.3,5.2-5,8.4-8.4 c3.2-3.3,6.4-6.8,9.4-10.6s5.7-7.4,7.8-11c2.1-3.6,3.1-6.7,3.1-9.4c0-2.9-1.4-4.9-4.3-6.1c-0.2-0.1-0.5-0.1-1-0.1 c-0.9,0-2.1,0.1-3.6,0.3c-1.5,0.2-2.9,0.4-4.1,0.7c-1.2,0.2-2,0.4-2.4,0.5c0.7,0.2,1.2,0.4,1.5,0.6c0.3,0.2,0.5,0.5,0.5,0.9 c0,0.5-0.2,1.2-0.6,2c-0.4,0.9-1,2.1-1.8,3.6C30.9,44.6,25,58.4,18.3,76.2z"></path> <path class="st1" d="M47,83.7c-0.3,0-0.5-0.2-0.7-0.7c-1-2.7-1.7-4.5-2.2-5.4c-0.4-0.6-0.5-1.1-0.5-1.4c0-0.3,0.3-0.6,0.8-0.9 c3.2-1.9,5.4-2.9,6.8-2.9c0.3,0,0.6,0,0.8,0.1l0.1,0c0-3.1,3.9-12.6,11.6-28.3c0.1-0.2,0.2-0.4,0.2-0.7c-0.5,0.3-1.1,0.5-1.5,0.6 c-0.7-0.1-1.4-0.2-2-0.2c-0.4,0-0.7,0-0.8,0c-0.1,0-0.2-0.3-0.2-0.7l0-2l0-1.9c0-1.3,0.1-2.3,0.2-2.9c0.2-0.6,0.7-1.1,1.5-1.4 c0.8-0.3,2.7-0.8,5.6-1.5c3.2-0.8,5.3-1.2,6.1-1.2c0.6,0,1.4,0.3,2.4,0.8c0.8,0.5,2.4,1.2,4.9,2.2c0.8,0.2,1.2,0.5,1.2,0.7 c0,0.1-0.1,0.2-0.3,0.4c-1.7,1.3-3,2.2-3.8,2.8c-0.7,0.5-1.3,0.9-1.8,1.3c-0.5,0.4-1,1-1.5,1.9c-0.7,1.2-3.4,7.1-8.1,17.6 c-3.4,7.4-5.1,11.4-5.1,11.9c0,0.3,0.4,0.5,1.3,0.5c0.9,0,2.1,0.3,3.8,0.9c0.5,0.2,0.7,0.3,0.7,0.6c0,0.4-1.3,1.9-4,4.5 c-1.1,1.2-1.8,1.7-1.9,1.7c-0.1,0-0.1-0.1-0.2-0.3c-0.2-0.3-0.5-0.5-0.8-0.5c-0.5,0-0.8,0.2-0.9,0.5c-0.2,0.6-0.4,0.9-0.6,0.9 c-0.1,0-0.3-0.1-0.5-0.4c-0.3-0.4-0.7-0.5-1-0.5c-4.2,0.7-6.8,1.7-7.8,2.8C47.9,83.2,47.3,83.7,47,83.7z"></path> <path class="st1" d="M80.3,80.8c-0.7,0-1.6-0.2-2.9-0.6c-1.3-0.4-2.6-1-3.9-1.7c-1.3-0.7-2.5-1.6-3.5-2.5c-1-1-1.4-2-1.5-3.2 c0.1-2.8,1.2-6.1,3.3-9.9l0.1-0.3l0-0.3h-1c-1.6,0-2.4-0.2-2.4-0.5c0-0.3,0.3-0.8,1-1.5c0.3-0.3,0.8-0.9,1.5-1.9 c1.4-1.9,2.3-3,2.8-3.2l2.2-0.6c0.6-0.2,2.4-2.8,5.4-7.8c0.2-0.2,0.4-0.6,0.8-1.3v-0.1c-0.8,0.2-1.2,0.4-1.2,0.9 c0,0.2-0.1,0.3-0.3,0.3c-0.6-0.1-2.1-0.7-4.5-1.8c-2.7-1.2-4.1-2.2-4.1-2.9c0-0.2,0.1-0.3,0.4-0.5c4.2-2,8.9-3.5,14.2-4.5 c6-1.2,11.1-1.7,15.5-1.7c5.5,0,8.3,0.7,8.4,2.2c-0.1,0.7-0.1,1.4-0.1,2c0,1,0.1,1.9,0.2,2.7s0.2,1.6,0.2,2.2 c0,1.1-0.4,1.7-1.2,1.7c-1.1,0-3.2-0.9-6.3-2.8c-0.2-0.1-0.5-0.2-1-0.2c-0.7,0-1.5,0-2.4,0.1c-1.2,0.1-3,0.2-5.1,0.4 c-1.5,0.1-2.3,0.3-2.3,0.9c0,0.2,0.1,0.4,0.2,0.7c0.1,0.3,0.2,0.8,0.2,1.5c0,0.5-0.1,1.1-0.4,1.8c-0.2,0.5-0.3,0.8-0.5,0.8 c-0.1,0-0.2,0-0.3-0.1c-0.1-0.1-0.3-0.2-0.6-0.2c-0.2,0-0.5,0.4-1,1.1c-0.4,0.6-0.7,1-0.9,1.3c0,0.1,0.2,0.1,0.5,0.1 c0.8-0.1,1.3-0.1,1.7-0.1c0.7,0,1.2,0.2,1.5,0.6c0.3,0.4,0.6,0.9,0.9,1.6c0.5,1.2,1.3,2.5,2.4,3.8c0.5,0.6,0.7,1.1,0.7,1.4 c0,0.3-0.5,0.5-1.5,0.5l-0.8,0c-1.8,0-3.7,0.1-5.5,0.1c-1.8,0-3.3,0.3-4.4,0.9c-1.1,0.5-2.2,1.7-3.2,3.5c-1,1.8-2.3,4.6-3.7,8.4 l0,0.2c0.1,0.5,0.5,0.7,1.2,0.7c0.5,0,1-0.1,1.3-0.3c4.5-2.8,7.6-4.7,9.2-5.6c1.1-0.6,1.9-1,2.4-1c0.5,0,0.7,0.5,0.7,1.4 c0,2.4,0.1,4.1,0.3,5.1l0,0.6c0,0.3-0.1,0.5-0.3,0.8c-0.4,0.5-2.5,1.9-6.4,4.2C83.6,79.7,81.7,80.6,80.3,80.8z"></path> <path class="st1" d="M139.2,94.9c-0.4,0-0.6-0.1-0.8-0.2c-0.1-0.2-0.2-0.5-0.3-1.1c0-0.6-0.1-1.3-0.1-2.1c0-3.4,0.2-9.1,0.6-17.2 c0.5-11.5,0.7-18.8,0.7-21.7c0-3.8-0.2-6-0.5-6.6l-2.5,5.7c-4.9,11-8.6,20.1-11.1,27.5c-0.1,0.2-0.1,0.3-0.1,0.5 c0,0.2,0.2,0.4,0.5,0.6c0.3,0.1,0.5,0.4,0.5,0.9c0,0.7-0.5,2-1.4,3.9c-0.2,0.2-0.7,0.5-1.7,0.9c-3,1.3-5.3,1.9-6.9,1.9 c-0.8,0-1.3-0.2-1.5-0.7c0.2-2.7,1.6-7.3,4.2-13.9s6-14.5,10.1-23.9c3-7,6.2-14.5,9.5-22.5c0.2-0.5,0.4-0.8,0.5-0.8 s0.3,0.1,0.5,0.3c1.6,1.8,2.6,2.8,2.9,2.8l0.3-0.1c0.1,0,0.1,0,0.1,0.1c0.1,0.5,0.7,1.1,1.6,1.9c0.3,0.3,0.5,0.5,0.5,0.7 c0,0.2,0,0.3-0.1,0.5c-0.1,0.2-0.1,0.3-0.1,0.5c0,0.2,0.1,0.4,0.2,0.6c1.9,4,2.9,12.1,2.9,24.3c0,2.8-0.1,5.7-0.2,8.8l0,3.6 l0.5-0.9c1-2.4,3.3-7,6.7-14c9.4-19.1,18-33.1,26-41.8h0.2l1.9,3.9c1.2,2.3,1.8,3.8,1.8,4.4c0,0.2-0.1,0.5-0.2,0.7 c-0.1,0.2-0.3,0.5-0.5,0.9s-0.5,0.8-0.8,1.4c-0.4,0.8-0.8,1.4-1.1,1.8c-0.3,0.4-0.6,0.7-0.8,0.8c-0.2,0.1-0.4,0.2-0.5,0.2l-0.5,0 c-0.2,0-0.5,0.3-0.9,0.7c-16.7,26.5-27.1,47.4-31.2,62.8c-0.7,2.3-1.2,3.5-1.5,3.5l-1.7,0c-1.8,0-3.3,0.1-4.7,0.4 C139.8,94.8,139.5,94.9,139.2,94.9z"></path> <path class="st1" d="M175.8,80.8c-0.7,0-1.6-0.2-2.9-0.6c-1.3-0.4-2.6-1-3.9-1.7c-1.3-0.7-2.5-1.6-3.5-2.5c-1-1-1.4-2-1.5-3.2 c0.1-2.8,1.2-6.1,3.3-9.9l0.1-0.3l0-0.3h-1c-1.6,0-2.4-0.2-2.4-0.5c0-0.3,0.3-0.8,1-1.5c0.3-0.3,0.8-0.9,1.5-1.9 c1.4-1.9,2.3-3,2.8-3.2l2.2-0.6c0.6-0.2,2.4-2.8,5.4-7.8c0.2-0.2,0.4-0.6,0.8-1.3v-0.1c-0.8,0.2-1.2,0.4-1.2,0.9 c0,0.2-0.1,0.3-0.3,0.3c-0.6-0.1-2.1-0.7-4.5-1.8c-2.7-1.2-4.1-2.2-4.1-2.9c0-0.2,0.1-0.3,0.4-0.5c4.2-2,8.9-3.5,14.2-4.5 c6-1.2,11.1-1.7,15.5-1.7c5.5,0,8.3,0.7,8.4,2.2c-0.1,0.7-0.1,1.4-0.1,2c0,1,0.1,1.9,0.2,2.7s0.2,1.6,0.2,2.2 c0,1.1-0.4,1.7-1.2,1.7c-1.1,0-3.2-0.9-6.3-2.8c-0.2-0.1-0.5-0.2-1-0.2c-0.7,0-1.5,0-2.4,0.1c-1.2,0.1-3,0.2-5.1,0.4 c-1.5,0.1-2.3,0.3-2.3,0.9c0,0.2,0.1,0.4,0.2,0.7c0.1,0.3,0.2,0.8,0.2,1.5c0,0.5-0.1,1.1-0.4,1.8c-0.2,0.5-0.3,0.8-0.5,0.8 c-0.1,0-0.2,0-0.3-0.1c-0.1-0.1-0.3-0.2-0.6-0.2c-0.2,0-0.5,0.4-1,1.1c-0.4,0.6-0.7,1-0.9,1.3c0,0.1,0.2,0.1,0.5,0.1 c0.8-0.1,1.3-0.1,1.7-0.1c0.7,0,1.2,0.2,1.5,0.6c0.3,0.4,0.6,0.9,0.9,1.6c0.5,1.2,1.3,2.5,2.4,3.8c0.5,0.6,0.7,1.1,0.7,1.4 c0,0.3-0.5,0.5-1.5,0.5l-0.8,0c-1.8,0-3.7,0.1-5.5,0.1c-1.8,0-3.3,0.3-4.4,0.9c-1.1,0.5-2.2,1.7-3.2,3.5c-1,1.8-2.3,4.6-3.7,8.4 l0,0.2c0.1,0.5,0.5,0.7,1.2,0.7c0.5,0,1-0.1,1.3-0.3c4.5-2.8,7.6-4.7,9.2-5.6c1.1-0.6,1.9-1,2.4-1c0.5,0,0.7,0.5,0.7,1.4 c0,2.4,0.1,4.1,0.3,5.1l0,0.6c0,0.3-0.1,0.5-0.3,0.8c-0.4,0.5-2.5,1.9-6.4,4.2C179.1,79.7,177.1,80.6,175.8,80.8z"></path> <path class="st1" d="M221.1,79.1l-0.5-0.1c-1.5-0.5-2.7-1-3.7-1.3c-1.3-0.4-2.3-0.7-2.8-1s-0.8-0.8-0.8-1.4c0-1,0.6-3,1.8-6 c0.7-1.7,1.1-3.1,1.3-4.1l-1.7,1.8c-4.8,5.7-8.4,8.6-10.7,8.6c-0.6,0-3.4-1-8.4-2.9c-1-0.4-1.5-1.8-1.5-4.1 c0-4.7,1.6-11.2,4.7-19.4c2.8-7.5,5.6-13,8.4-16.3c0.7-0.7,1.2-1.3,1.5-1.8c0.4-0.7,0.8-1,1-1c0.2,0,0.7,1.1,1.3,3.1 c0.8,2.2,1.3,3.9,1.3,5.1c0,0.8-0.2,1.6-0.6,2.4c-0.5,1-1.1,3-1.7,6c-0.1,0.4-0.2,0.6-0.4,0.6c-0.1,0-0.1,0-0.2-0.1 c-0.1-0.1-0.2-0.1-0.3-0.1c-0.4,0-2,4.1-4.7,12.3c-1,3.1-1.5,5.3-1.5,6.4c0,0.5,0.2,0.8,0.5,0.8c0.7,0,2.1-1.2,4.2-3.5 c1.8-2,7.4-8.6,16.8-19.9c0.7-0.9,1.5-2.2,2.3-3.9l0.9-0.9c2.8-3.2,4.5-4.9,4.9-5.2c0.7,0,1.4,1.8,2.3,5.2c0.4,1.8,0.6,2.9,0.6,3.2 c0,0.3-0.2,0.8-0.6,1.3c-1.6,2.1-3.8,7.1-6.5,14.9c-2.5,7.2-4,11.5-4.5,13c-0.4,1-0.6,1.6-0.6,1.9c0,0.1,0,0.2,0.1,0.4 s0.1,0.7,0.2,1.7c0,0.4-0.5,1.7-1.6,3.7C221.5,78.9,221.3,79.1,221.1,79.1z"></path> <path class="st1" d="M239.2,80.8c-0.7,0-1.6-0.2-2.9-0.6c-1.3-0.4-2.6-1-3.9-1.7c-1.3-0.7-2.5-1.6-3.5-2.5c-1-1-1.4-2-1.5-3.2 c0.1-2.8,1.2-6.1,3.3-9.9l0.1-0.3l0-0.3h-1c-1.6,0-2.4-0.2-2.4-0.5c0-0.3,0.3-0.8,1-1.5c0.3-0.3,0.8-0.9,1.5-1.9 c1.4-1.9,2.3-3,2.8-3.2l2.2-0.6c0.6-0.2,2.4-2.8,5.4-7.8c0.2-0.2,0.4-0.6,0.8-1.3v-0.1c-0.8,0.2-1.2,0.4-1.2,0.9 c0,0.2-0.1,0.3-0.3,0.3c-0.6-0.1-2.1-0.7-4.5-1.8c-2.7-1.2-4.1-2.2-4.1-2.9c0-0.2,0.1-0.3,0.4-0.5c4.2-2,8.9-3.5,14.2-4.5 c6-1.2,11.1-1.7,15.5-1.7c5.5,0,8.3,0.7,8.4,2.2c-0.1,0.7-0.1,1.4-0.1,2c0,1,0.1,1.9,0.2,2.7s0.2,1.6,0.2,2.2 c0,1.1-0.4,1.7-1.2,1.7c-1.1,0-3.2-0.9-6.3-2.8c-0.2-0.1-0.5-0.2-1-0.2c-0.7,0-1.5,0-2.4,0.1c-1.2,0.1-3,0.2-5.1,0.4 c-1.5,0.1-2.3,0.3-2.3,0.9c0,0.2,0.1,0.4,0.2,0.7c0.1,0.3,0.2,0.8,0.2,1.5c0,0.5-0.1,1.1-0.4,1.8c-0.2,0.5-0.3,0.8-0.5,0.8 c-0.1,0-0.2,0-0.3-0.1c-0.1-0.1-0.3-0.2-0.6-0.2c-0.2,0-0.5,0.4-1,1.1c-0.4,0.6-0.7,1-0.9,1.3c0,0.1,0.2,0.1,0.5,0.1 c0.8-0.1,1.3-0.1,1.7-0.1c0.7,0,1.2,0.2,1.5,0.6c0.3,0.4,0.6,0.9,0.9,1.6c0.5,1.2,1.3,2.5,2.4,3.8c0.5,0.6,0.7,1.1,0.7,1.4 c0,0.3-0.5,0.5-1.5,0.5l-0.8,0c-1.8,0-3.7,0.1-5.5,0.1c-1.8,0-3.3,0.3-4.4,0.9c-1.1,0.5-2.2,1.7-3.2,3.5c-1,1.8-2.3,4.6-3.7,8.4 l0,0.2c0.1,0.5,0.5,0.7,1.2,0.7c0.5,0,1-0.1,1.3-0.3c4.5-2.8,7.6-4.7,9.2-5.6c1.1-0.6,1.9-1,2.4-1c0.5,0,0.7,0.5,0.7,1.4 c0,2.4,0.1,4.1,0.3,5.1l0,0.6c0,0.3-0.1,0.5-0.3,0.8c-0.4,0.5-2.5,1.9-6.4,4.2C242.5,79.7,240.6,80.6,239.2,80.8z"></path> <path class="st1" d="M307.3,101.6c-0.4,0-1.5-0.6-3.2-1.7l-3.8-2.2c-0.5-0.3-0.7-1-0.7-2c0-4.2,5.6-20.4,16.9-48.5l1.6-3.7 c-0.3,0-1.6,1.6-3.9,4.7c-1.1,1.5-2.2,3-3.4,4.6c-2.9,3.8-5,5.7-6.2,5.7c-0.2,0-0.3,0-0.5-0.1c-1.3-0.8-2.4-1.4-3.4-1.9 c-1.6-0.8-2.8-1.5-3.5-2.2c-0.7-0.7-1.1-1.9-1.1-3.5c0-1.5,0.3-3.6,0.8-6.4c-0.5,0.7-2.8,6.8-7,18.4c-1.2,3-2.3,6.1-3.6,9.3 c-3,7.5-4.9,11.3-5.8,11.3c-0.1,0-0.2-0.1-0.3-0.2c-1.9-2.8-3.2-4.5-3.7-5.1c-0.4-0.5-0.6-0.8-0.6-1c0.5-2.1,4.5-12.9,12-32.5 c5.1-12.4,8.6-18.9,10.5-19.4c0.5-0.1,1.8-1,3.7-2.7c0.7-0.7,1.1-1,1.5-1c0.4,0,0.6,0.5,0.6,1.4c0.2,1.1,0.4,1.6,0.9,1.6 c0.6,0.1,0.9,0.2,0.9,0.3c0,0.2-0.1,0.3-0.2,0.6c-0.1,0.2-0.3,0.5-0.4,0.9c-0.2,0.4-0.2,0.9-0.2,1.5c0,0.4,0,0.8,0.1,1.2 c0.3,1.5,0.4,3.1,0.4,4.9c0,2.8-0.3,6.4-0.8,10.8c-0.1,1.1-0.2,1.8-0.2,2.1c0.8-0.8,1.9-2.2,3.4-4.1c5.7-8.2,13.5-16.5,23.2-24.9 c0.9-0.9,1.5-1.4,1.9-1.4c0.4,0,0.7,0.5,1,1.5c0.3,1,0.5,2.9,0.7,5.7c0,1.9-0.7,4.6-2.1,7.9c-1.4,3.4-3.1,7.2-5.1,11.6 c-3,6.3-6.8,15.9-11.6,28.8c-4.8,12.9-7.5,22.5-8.2,28.8C307.7,101.4,307.6,101.6,307.3,101.6z"></path> <path class="st1" d="M319.9,93.6c-0.5,0-0.9-0.6-1.2-1.7c-0.3-1.1-0.6-2.8-1-5.2c-0.2-1.2-0.3-1.9-0.3-2.3c0-1.1,0.3-2.4,0.9-4 c1.6-4.2,2.4-6.5,2.4-6.9c0-0.2-0.1-0.4-0.2-0.5c-6.2-1-9.3-1.8-9.3-2.5c0-0.2,0.2-0.4,0.5-0.6l3-2.4c5.2-2.9,8.3-4.3,9.4-4.3 c0.3,0,0.5,0.2,0.6,0.5c0,0.2,0,0.4,0.1,0.5c3-4.7,6.2-9.6,9.6-14.8c15-22.4,25.2-33.6,30.6-33.6c0.3,0,0.6,0,0.9,0.1 c2.6,0.7,4.5,1,5.7,1c0.6,0,1.1,0.1,1.4,0.2c0.3,0.1,0.4,0.3,0.4,0.7c0,0.3-0.1,0.8-0.3,1.5l0,0.2c0,0.5-0.4,1.7-1.2,3.6 c-0.8,1.8-1.9,4.1-3.2,6.7c-2.5,5-5.3,11.1-8.6,18.3c-3.2,7.2-4.9,12.6-5.2,16.3c0,0.5-0.1,0.8-0.3,0.8l-0.5,0 c-0.2,0-0.3,0.1-0.4,0.4c-1.1,4-1.6,6.8-1.6,8.3c0,0.7,0.1,1.2,0.2,1.5c0.1,0.3,0.3,0.5,0.5,0.6s0.4,0.1,0.5,0.1l0.5,0 c0.1,0,0.1,0,0.1,0.1c0,0.1-0.1,0.3-0.3,0.6c-0.7,1.2-1.4,2.2-1.9,3.1c-0.8,1.4-1.6,2.5-2.1,3.4c-0.6,0.8-1,1.2-1.4,1.2 c-0.2,0-0.5-0.2-0.6-0.5c-1.1-1.9-2-3.3-2.9-4.1c-0.6-0.6-1-1.3-1.4-1.9c-0.3-0.6-0.5-1.5-0.5-2.5c0-1.8,0.6-4.9,1.7-9.1 c0-0.1-0.1-0.2-0.4-0.2c-1,0-3.6,0.8-7.8,2.3c-3.9,1.5-6.1,2.4-6.4,2.8c-3.1,7.9-4.7,12.6-4.7,14.1c0,0.7,0.2,1.1,0.7,1.1 c0.2,0,0.3,0,0.3,0.1c0,0.1-0.1,0.2-0.3,0.5c-2.1,2.8-3.6,4.6-4.3,5.4C320.9,93.2,320.3,93.6,319.9,93.6z M336,60.1 c3.4-1.1,6-1.8,7.6-2.2c1.4-0.3,2.5-0.7,3.1-1c0.7-0.3,1.2-0.8,1.6-1.5s0.9-1.9,1.4-3.5c1.3-3.7,4.8-11.3,10.4-22.9 c0.1-0.1,0.2-0.3,0.2-0.4l0-0.2C351.8,36.5,343.6,47,336,60.1L336,60.1z"></path> <path class="st1" d="M386.2,101.6c-0.4,0-1.5-0.6-3.2-1.7l-3.8-2.2c-0.5-0.3-0.7-1-0.7-2c0-4.2,5.6-20.4,16.9-48.5l1.6-3.7 c-0.3,0-1.6,1.6-3.9,4.7c-1.1,1.5-2.2,3-3.4,4.6c-2.9,3.8-5,5.7-6.2,5.7c-0.2,0-0.3,0-0.5-0.1c-1.3-0.8-2.4-1.4-3.4-1.9 c-1.6-0.8-2.8-1.5-3.5-2.2c-0.7-0.7-1.1-1.9-1.1-3.5c0-1.5,0.3-3.6,0.8-6.4c-0.5,0.7-2.8,6.8-7,18.4c-1.2,3-2.3,6.1-3.6,9.3 c-3,7.5-4.9,11.3-5.8,11.3c-0.1,0-0.2-0.1-0.3-0.2c-1.9-2.8-3.2-4.5-3.7-5.1c-0.4-0.5-0.6-0.8-0.6-1c0.5-2.1,4.5-12.9,12-32.5 c5.1-12.4,8.6-18.9,10.5-19.4c0.5-0.1,1.8-1,3.7-2.7c0.7-0.7,1.1-1,1.5-1c0.4,0,0.6,0.5,0.6,1.4c0.2,1.1,0.4,1.6,0.9,1.6 c0.6,0.1,0.9,0.2,0.9,0.3c0,0.2-0.1,0.3-0.2,0.6c-0.1,0.2-0.3,0.5-0.4,0.9c-0.2,0.4-0.2,0.9-0.2,1.5c0,0.4,0,0.8,0.1,1.2 c0.3,1.5,0.4,3.1,0.4,4.9c0,2.8-0.3,6.4-0.8,10.8c-0.1,1.1-0.2,1.8-0.2,2.1c0.8-0.8,1.9-2.2,3.4-4.1c5.7-8.2,13.5-16.5,23.2-24.9 c0.9-0.9,1.5-1.4,1.9-1.4c0.4,0,0.7,0.5,1,1.5c0.3,1,0.5,2.9,0.7,5.7c0,1.9-0.7,4.6-2.1,7.9c-1.4,3.4-3.1,7.2-5.1,11.6 c-3,6.3-6.8,15.9-11.6,28.8c-4.8,12.9-7.5,22.5-8.2,28.8C386.6,101.4,386.5,101.6,386.2,101.6z"></path> <path class="st1" d="M427.1,96c-1.5-1.3-2.7-2.3-3.7-3.1s-1.8-1.4-2.3-2s-0.8-1.3-0.8-2.1c0-0.6,0.2-1.4,0.5-2.2 c0.1-0.2,0.3-0.4,0.5-0.4c1.6-0.5,4.1-5.2,7.6-14.3c0-0.1,0-0.1,0-0.1v-0.1h0c0-0.1,0-0.1,0-0.1l0-0.1h0l0-0.2h0v-0.1h0 c0-0.1,0-0.1,0-0.2c0,0,0-0.1,0-0.2l0.5-1.4c-1.7,0.5-2.9,0.7-3.5,0.7c-0.3,0-0.6-0.1-0.7-0.2l-1.3-2.2c-1.4-2.4-2.1-3.9-2.1-4.6 c0-0.6,0.4-1.1,1.3-1.5c0.9-0.3,2.4-0.7,4.5-1.2c1.5-0.4,3.5-0.8,5.9-1.5c0.5-0.4,3.9-8,10-22.6c0-0.2,0-0.3,0.1-0.3 c0.1-0.1,0.1-0.1,0.1-0.2c0,0,0-0.1,0.1-0.2c0-0.1,0.1-0.1,0.1-0.2c0-0.1,0-0.1,0-0.1s0,0,0-0.1c0,0,0-0.1,0.1-0.1 c0,0,0.1-0.1,0.1-0.1c0-0.1,0-0.1,0-0.2c0,0,0.1-0.1,0.1-0.2c0-0.2,0.1-0.3,0.1-0.3v-0.1h0c0-0.1,0-0.2,0-0.2c0,0,0.1-0.1,0.1-0.3 c0-0.2,0.1-0.3,0.2-0.4c0.2-0.7,0.4-1,0.4-1l0,0c-9.6,3-15.7,4.5-18.3,4.5l-0.6,0c-2-0.5-4-0.8-6-0.9c-0.5,0-0.8-0.1-0.8-0.3 c0-0.2,0.7-1.2,2-3.1c1.9-2.6,3.3-4,4.4-4.1c4.4-0.5,11-2.3,19.9-5.4c1.8-0.6,2.8-1,2.9-1.1c0.5-0.8,0.8-1.4,1.1-1.8 c0.4-0.6,1-1,1.7-1.1c4-0.8,6.2-1.2,6.8-1.2c0.4,0,0.6,0.1,0.6,0.2l-0.2,1.2c0,0.2,0.2,0.3,0.5,0.3c0.4,0,1.4-0.2,3-0.7 c10.6-2.6,17.5-4,20.6-4c0.9,0,1.6,0.2,2,0.7s0.7,1.4,0.9,2.9c0.2,1.2,0.6,3,1.3,5.3l0,0.5c0,0.6-0.4,1.3-1.2,2 c-0.2,0.1-0.3,0.3-0.5,0.4c-0.1,0.2-0.3,0.2-0.5,0.2c-0.2,0-0.5-0.1-0.8-0.2c-0.4-0.1-1.2-0.2-2.5-0.4s-2.3-0.3-3-0.3 c-0.7,0-1.1-0.1-1.2-0.3c0-0.1,0.1-0.2,0.2-0.3c0.4-0.6,0.6-0.9,0.7-1c0.1-0.1,0.1-0.2,0.1-0.3c0-0.1-0.1-0.2-0.3-0.2 c-2.4,0.5-4.4,0.8-6,1c-7.7,1.6-12.3,2.7-13.7,3.2c-1.4,0.6-2.6,1.9-3.7,3.8c-1,1.9-2.4,5.1-4,9.4c-1.4,3.6-3.4,8.4-5.9,14.3l0,0.2 c0,0.1,0.1,0.2,0.3,0.2c1.5-0.2,2.5-0.3,2.8-0.3c2,0,5.4,0.5,10.2,1.6c0.7,0.2,1.1,0.4,1.1,0.5c0,0.1-0.1,0.2-0.2,0.4 c-1.8,2.4-2.9,4-3.3,5c-0.4,0.7-0.7,1.1-0.9,1.1c-0.1,0-0.2,0-0.3-0.1c-0.2-0.2-0.8-0.3-1.7-0.3c-2.5,0-5.4,0.4-8.9,1.3 c-2.1,0.5-3.3,1-3.7,1.5l-2.8,6.7c-5.1,12.4-8.4,19.8-9.9,22.3L427.1,96z"></path> <path class="st1" d="M478.7,84c-0.3,0-0.5-0.4-0.7-1.1c-0.8-3.7-1.3-7.3-1.5-10.9c0-1,0.1-2.2,0.3-3.7c0.1-0.8,0.1-1.5,0.1-2 c-0.2,0.1-0.4,0.2-0.5,0.2c-0.2,0-0.3-0.2-0.5-0.4c-0.4-0.5-0.9-0.8-1.5-0.9c-0.4,0-0.8,0-1.3,0c-1.6,0-3.8,0.2-6.7,0.5 c-0.3,0-0.5,0.1-0.6,0.3c-0.1,0.2-0.5,1.1-1.2,2.8c-0.1,0.1-0.1,0.2-0.1,0.3c0,0.2,0.2,0.4,0.5,0.5s0.5,0.2,0.5,0.4 c0,0.3-0.6,0.8-1.7,1.7c-0.4,0.3-0.9,0.7-1.6,1.3c-2.1,1.9-3.5,2.9-4.1,2.9c-0.2,0-0.3-0.1-0.4-0.3c-0.8-2.4-1.2-4.3-1.2-5.8 c0-1.4-0.3-2.1-0.7-2.2c-0.4,0-0.6-0.1-0.6-0.2v-0.6c0.1-0.9,0.1-1.7,0.1-2.3c0-1-0.1-2-0.2-3c-0.1-0.4-0.1-0.7-0.1-0.9 c0-0.4,0.2-0.7,0.5-0.9l3.6-0.7c9.6-17.2,17.3-27.3,23.2-30.5c0.3-0.2,0.6-0.3,0.9-0.3c0.5,0,1.6,0.5,3.5,1.5l3.1,1.7 c1.3,0.6,2,1.7,2,3.4c0,1.6-0.5,4.1-1.6,7.5c-2.6,8.3-4.6,18.6-6,30.9l0,1.3c0,0.9,0.1,1.9,0.3,3c0.1,0.4,0.1,0.7,0.1,1 c0,0.5-0.1,0.8-0.4,1c-1.8,1.3-3.1,2.3-3.9,3.2C479.5,83.6,479,84,478.7,84z M477.5,58.6c0.3,0,0.5-0.3,0.7-1 c0.2-0.7,0.5-2,0.9-3.9c0.5-2.7,1.5-7.1,3-13.3c0-0.1,0-0.2,0-0.2c0,0,0-0.1,0-0.1c-4.6,5.2-8.6,11-12.1,17.2l2.6-0.1 c1.7,0,3,0.3,4,1C477,58.5,477.3,58.6,477.5,58.6z"></path> <path class="st1" d="M509,93.4c-0.1,0-0.2-0.1-0.4-0.2c-1.9-2.8-3-4.6-3.5-5.3c-0.5-0.9-0.7-1.9-0.7-2.9c0-1.2,0.3-2.7,1-4.6 c0.7-1.9,1.6-4.5,3-7.8c1.2-3,2.6-6.8,4.4-11.4c-0.4,0.2-1.1,0.9-2.2,2.4c-1.1,1.4-2.2,3-3.4,4.7c-1.2,1.7-2.1,3.1-2.7,4.1 l-0.6,0.9l-0.2,0.1c-0.4,0-0.9-0.5-1.6-1.6c-0.7-1-1.3-2.1-2-3.3c-0.6-1.1-1-1.9-1.2-2.4c-0.2-0.4-0.2-1-0.2-1.7 c0-0.9,0.1-1.9,0.2-3s0.2-2.1,0.2-2.9c-0.2,0.2-0.8,1.4-1.8,3.7c-0.8,1.9-1.4,3-1.5,3.5c0,0,0,0,0,0c-1.3,3-2.1,5.2-2.5,6.7 c0,0.1-0.1,0.2-0.3,0.3c-1.1,0.7-2.6,2-4.5,3.9c-0.6,0.6-1,0.9-1.2,0.9c-0.2,0-0.3-0.6-0.5-1.7c-0.6-2.6-1-4.6-1.1-6.2 c0-2.5,3.3-10.2,9.8-23.2c2.3-4.5,3.8-7.4,4.6-8.8c0.1-0.1,0.1-0.2,0.2-0.3c0.1-0.1,0.2-0.2,0.3-0.2c0.2,0,1.9,0.8,5.1,2.5 c1.6,0.9,2.4,1.4,2.4,1.7c0,0.1,0,0.2-0.1,0.2c-0.1,0.1-0.1,0.2-0.2,0.2c0,0.1-0.1,0.2-0.1,0.3c0,0.2,0,0.3,0.1,0.5 c0.5,1.1,0.7,2.7,0.7,5l0,4.1c0,0.4,0,0.7,0,0.7l5-6.1c2.4-3,4.3-5.4,5.7-7c1.4-1.6,2.5-2.7,3.4-3.3c0.9-0.6,1.8-0.9,2.8-0.9 c0.8,0,2.3,0.2,4.5,0.6c1.5,0.2,2.3,0.5,2.3,0.7c0,0.2-0.1,0.4-0.2,0.6c-1.5,3.1-3.7,8.1-6.6,15.1s-5.6,13.7-8.1,20.3 c-2.5,6.6-3.7,10.5-3.7,11.6c0,0.2,0.1,0.2,0.3,0.3c0.2,0,0.3,0.2,0.3,0.3c0,0.3-0.3,0.8-0.9,1.6c-0.9,1.3-1.7,2.7-2.4,4.2 C510,92.4,509.4,93.4,509,93.4z"></path> <path class="st1" d="M521.6,83.7c-0.3,0-0.5-0.2-0.7-0.7c-1-2.7-1.7-4.5-2.2-5.4c-0.4-0.6-0.5-1.1-0.5-1.4c0-0.3,0.3-0.6,0.8-0.9 c3.2-1.9,5.4-2.9,6.8-2.9c0.3,0,0.6,0,0.8,0.1l0.1,0c0-3.1,3.9-12.6,11.6-28.3c0.1-0.2,0.2-0.4,0.2-0.7c-0.5,0.3-1.1,0.5-1.5,0.6 c-0.7-0.1-1.4-0.2-2-0.2c-0.4,0-0.7,0-0.8,0c-0.1,0-0.2-0.3-0.2-0.7l0-2l0-1.9c0-1.3,0.1-2.3,0.2-2.9c0.2-0.6,0.7-1.1,1.5-1.4 c0.8-0.3,2.7-0.8,5.6-1.5c3.2-0.8,5.3-1.2,6.1-1.2c0.6,0,1.4,0.3,2.4,0.8c0.8,0.5,2.4,1.2,4.9,2.2c0.8,0.2,1.2,0.5,1.2,0.7 c0,0.1-0.1,0.2-0.3,0.4c-1.7,1.3-3,2.2-3.8,2.8c-0.7,0.5-1.3,0.9-1.8,1.3c-0.5,0.4-1,1-1.5,1.9c-0.7,1.2-3.4,7.1-8.1,17.6 c-3.4,7.4-5.1,11.4-5.1,11.9c0,0.3,0.4,0.5,1.3,0.5c0.9,0,2.1,0.3,3.8,0.9c0.5,0.2,0.7,0.3,0.7,0.6c0,0.4-1.3,1.9-4,4.5 c-1.1,1.2-1.8,1.7-1.9,1.7c-0.1,0-0.1-0.1-0.2-0.3c-0.2-0.3-0.5-0.5-0.8-0.5c-0.5,0-0.8,0.2-0.9,0.5c-0.2,0.6-0.4,0.9-0.6,0.9 c-0.1,0-0.3-0.1-0.5-0.4c-0.3-0.4-0.7-0.5-1-0.5c-4.2,0.7-6.8,1.7-7.8,2.8C522.5,83.2,521.9,83.7,521.6,83.7z"></path> <path class="st1" d="M571.3,80.6l-0.5,0c-5.1-0.8-7.6-1.3-7.6-1.6c0-0.1,0-0.2,0.1-0.3c0-0.2-0.4-0.3-1-0.3c-0.8,0-2,0.1-3.6,0.4 c-6.7,0.7-11.7,1-15.2,1c-3.7,0-7.2-0.3-10.6-1c-0.5-0.1-0.7-0.2-0.7-0.3c0-0.2,0.2-0.5,0.5-1c0.6-0.7,1.5-2,2.6-4 c0.2-0.6,0.5-1.1,0.8-1.5c0.3-0.3,1.1-0.5,2.4-0.5l1.3,0c0.7,0.1,1.3,0.1,1.8,0.1c1.1,0,1.7-0.2,1.9-0.6c0-2,0.6-4.5,1.9-7.5 c1.3-3,3.5-7.7,6.5-13.9c7-14.4,10.6-21.8,10.7-22.3c0.5-1,0.8-1.5,1-1.5c0.3,0,2,0.7,5.1,2.2c1.9,0.9,2.8,1.6,2.9,2 c0,0.2-0.1,0.4-0.3,0.6c-0.3,0.5-0.5,1.1-0.5,1.8l-2.3,4.5c-10.5,20.3-15.7,31.3-15.7,33.2c0,0.2,0,0.3,0.1,0.3 c6.8-0.3,10.6-0.5,11.4-0.5c0.9,0,1.7,0.1,2.4,0.2c0.7,0.1,1.3,0.4,1.6,1c2.6,4.2,3.9,7,3.9,8.3C572.3,80.1,571.9,80.5,571.3,80.6z "></path> <path class="st1" d="M562.9,83.7c-0.3,0-0.5-0.2-0.7-0.7c-1-2.7-1.7-4.5-2.2-5.4c-0.4-0.6-0.5-1.1-0.5-1.4c0-0.3,0.3-0.6,0.8-0.9 c3.2-1.9,5.4-2.9,6.8-2.9c0.3,0,0.6,0,0.8,0.1l0.1,0c0-3.1,3.9-12.6,11.6-28.3c0.1-0.2,0.2-0.4,0.2-0.7c-0.5,0.3-1.1,0.5-1.5,0.6 c-0.7-0.1-1.4-0.2-2-0.2c-0.4,0-0.7,0-0.8,0c-0.1,0-0.2-0.3-0.2-0.7l0-2l0-1.9c0-1.3,0.1-2.3,0.2-2.9c0.2-0.6,0.7-1.1,1.5-1.4 c0.8-0.3,2.7-0.8,5.6-1.5c3.2-0.8,5.3-1.2,6.1-1.2c0.6,0,1.4,0.3,2.4,0.8c0.8,0.5,2.4,1.2,4.9,2.2c0.8,0.2,1.2,0.5,1.2,0.7 c0,0.1-0.1,0.2-0.3,0.4c-1.7,1.3-3,2.2-3.8,2.8c-0.7,0.5-1.3,0.9-1.8,1.3c-0.5,0.4-1,1-1.5,1.9c-0.7,1.2-3.4,7.1-8.1,17.6 c-3.4,7.4-5.1,11.4-5.1,11.9c0,0.3,0.4,0.5,1.3,0.5c0.9,0,2.1,0.3,3.8,0.9c0.5,0.2,0.7,0.3,0.7,0.6c0,0.4-1.3,1.9-4,4.5 c-1.1,1.2-1.8,1.7-1.9,1.7c-0.1,0-0.1-0.1-0.2-0.3c-0.2-0.3-0.5-0.5-0.8-0.5c-0.5,0-0.8,0.2-0.9,0.5c-0.2,0.6-0.4,0.9-0.6,0.9 c-0.1,0-0.3-0.1-0.5-0.4c-0.3-0.4-0.7-0.5-1-0.5c-4.2,0.7-6.8,1.7-7.8,2.8C563.9,83.2,563.3,83.7,562.9,83.7z"></path> <path class="st1" d="M596.3,80.8c-0.7,0-1.6-0.2-2.9-0.6c-1.3-0.4-2.6-1-3.9-1.7c-1.3-0.7-2.5-1.6-3.5-2.5c-1-1-1.4-2-1.5-3.2 c0.1-2.8,1.2-6.1,3.3-9.9l0.1-0.3l0-0.3h-1c-1.6,0-2.4-0.2-2.4-0.5c0-0.3,0.3-0.8,1-1.5c0.3-0.3,0.8-0.9,1.5-1.9 c1.4-1.9,2.3-3,2.8-3.2l2.2-0.6c0.6-0.2,2.4-2.8,5.4-7.8c0.2-0.2,0.4-0.6,0.8-1.3v-0.1c-0.8,0.2-1.2,0.4-1.2,0.9 c0,0.2-0.1,0.3-0.3,0.3c-0.6-0.1-2.1-0.7-4.5-1.8c-2.7-1.2-4.1-2.2-4.1-2.9c0-0.2,0.1-0.3,0.4-0.5c4.2-2,8.9-3.5,14.2-4.5 c6-1.2,11.1-1.7,15.5-1.7c5.5,0,8.3,0.7,8.4,2.2c-0.1,0.7-0.1,1.4-0.1,2c0,1,0.1,1.9,0.2,2.7s0.2,1.6,0.2,2.2 c0,1.1-0.4,1.7-1.2,1.7c-1.1,0-3.2-0.9-6.3-2.8c-0.2-0.1-0.5-0.2-1-0.2c-0.7,0-1.5,0-2.4,0.1c-1.2,0.1-3,0.2-5.1,0.4 c-1.5,0.1-2.3,0.3-2.3,0.9c0,0.2,0.1,0.4,0.2,0.7c0.1,0.3,0.2,0.8,0.2,1.5c0,0.5-0.1,1.1-0.4,1.8c-0.2,0.5-0.3,0.8-0.5,0.8 c-0.1,0-0.2,0-0.3-0.1c-0.1-0.1-0.3-0.2-0.6-0.2c-0.2,0-0.5,0.4-1,1.1c-0.4,0.6-0.7,1-0.9,1.3c0,0.1,0.2,0.1,0.5,0.1 c0.8-0.1,1.3-0.1,1.7-0.1c0.7,0,1.2,0.2,1.5,0.6c0.3,0.4,0.6,0.9,0.9,1.6c0.5,1.2,1.3,2.5,2.4,3.8c0.5,0.6,0.7,1.1,0.7,1.4 c0,0.3-0.5,0.5-1.5,0.5l-0.8,0c-1.8,0-3.7,0.1-5.5,0.1c-1.8,0-3.3,0.3-4.4,0.9c-1.1,0.5-2.2,1.7-3.2,3.5c-1,1.8-2.3,4.6-3.7,8.4 l0,0.2c0.1,0.5,0.5,0.7,1.2,0.7c0.5,0,1-0.1,1.3-0.3c4.5-2.8,7.6-4.7,9.2-5.6c1.1-0.6,1.9-1,2.4-1c0.5,0,0.7,0.5,0.7,1.4 c0,2.4,0.1,4.1,0.3,5.1l0,0.6c0,0.3-0.1,0.5-0.3,0.8c-0.4,0.5-2.5,1.9-6.4,4.2C599.6,79.7,597.7,80.6,596.3,80.8z"></path> </g> </svg> 