<?xml version="1.0" encoding="utf-8"?>
<!-- Generator: Adobe Illustrator 27.5.0, SVG Export Plug-In . SVG Version: 6.00 Build 0)  -->
<svg version="1.1" id="Layer_1" xmlns="http://www.w3.org/2000/svg" xmlns:xlink="http://www.w3.org/1999/xlink" x="0px" y="0px"
	 width="564px" height="80px" viewBox="0 0 564 80" style="enable-background:new 0 0 564 80;" xml:space="preserve">
<style type="text/css">
	.st0{fill:#CBFC4E;}
	.st1{enable-background:new    ;}
	.st2{fill:#262626;}
</style>
<g id="Group_9293" transform="translate(-597 -58)">
	<path id="Rectangle_4338" class="st0" d="M599,94h560c1.1,0,2,0.9,2,2l0,0c0,1.1-0.9,2-2,2H599c-1.1,0-2-0.9-2-2l0,0
		C597,94.9,597.9,94,599,94z"/>
	<g class="st1">
		<path class="st2" d="M625.8,120.9c-1-0.9-1.8-1.5-2.4-2c-0.6-0.5-1.2-0.9-1.5-1.3c-0.4-0.4-0.6-0.8-0.6-1.4c0-0.4,0.1-0.9,0.3-1.5
			c0.1-0.2,0.2-0.2,0.3-0.2c1-0.3,2.7-3.4,5-9.4c0-0.1,0-0.1,0-0.1v-0.1h0c0,0,0-0.1,0-0.1l0-0.1h0l0-0.1h0v-0.1h0c0,0,0-0.1,0-0.1
			c0,0,0-0.1,0-0.1l0.4-0.9c-1.1,0.3-1.9,0.4-2.3,0.4c-0.2,0-0.4,0-0.5-0.1l-0.8-1.5c-0.9-1.5-1.4-2.6-1.4-3c0-0.4,0.3-0.7,0.8-1
			c0.6-0.2,1.6-0.5,3-0.8c1-0.2,2.3-0.6,3.8-1c0.3-0.3,2.5-5.2,6.6-14.8c0-0.1,0-0.2,0.1-0.2c0,0,0.1-0.1,0.1-0.1c0,0,0-0.1,0.1-0.1
			c0,0,0-0.1,0-0.1c0,0,0-0.1,0-0.1c0,0,0,0,0-0.1c0,0,0-0.1,0.1-0.1c0,0,0,0,0-0.1c0,0,0-0.1,0-0.1c0,0,0-0.1,0.1-0.1
			c0-0.1,0-0.2,0.1-0.2v-0.1h0c0-0.1,0-0.1,0-0.1c0,0,0-0.1,0.1-0.2c0-0.1,0.1-0.2,0.1-0.3c0.2-0.4,0.2-0.7,0.3-0.7l0,0
			c-6.3,1.9-10.3,2.9-12,2.9l-0.4,0c-1.3-0.3-2.6-0.5-3.9-0.6c-0.4,0-0.5-0.1-0.5-0.2c0-0.1,0.4-0.8,1.3-2c1.2-1.7,2.2-2.6,2.9-2.7
			c2.9-0.3,7.2-1.5,13-3.5c1.2-0.4,1.8-0.7,1.9-0.7c0.3-0.5,0.5-0.9,0.7-1.2c0.3-0.4,0.7-0.7,1.1-0.7c2.6-0.5,4.1-0.8,4.4-0.8
			c0.2,0,0.4,0,0.4,0.1l-0.1,0.8c0,0.1,0.1,0.2,0.3,0.2c0.3,0,0.9-0.1,2-0.4c7-1.7,11.4-2.6,13.5-2.6c0.6,0,1,0.1,1.3,0.4
			c0.2,0.3,0.5,0.9,0.6,1.9c0.1,0.8,0.4,1.9,0.8,3.5l0,0.4c0,0.4-0.3,0.8-0.8,1.3c-0.1,0.1-0.2,0.2-0.3,0.3
			c-0.1,0.1-0.2,0.1-0.3,0.1c-0.1,0-0.3,0-0.6-0.1c-0.2-0.1-0.8-0.2-1.6-0.3s-1.5-0.2-2-0.2c-0.5,0-0.7-0.1-0.8-0.2
			c0-0.1,0-0.1,0.1-0.2c0.3-0.4,0.4-0.6,0.5-0.7c0.1-0.1,0.1-0.1,0.1-0.2c0-0.1-0.1-0.1-0.2-0.1c-1.6,0.3-2.9,0.5-3.9,0.7
			c-5.1,1-8.1,1.7-9,2.1c-0.9,0.4-1.7,1.2-2.4,2.5c-0.7,1.3-1.6,3.3-2.7,6.1c-0.9,2.4-2.2,5.5-3.9,9.4l0,0.1c0,0.1,0.1,0.1,0.2,0.1
			c1-0.1,1.6-0.2,1.8-0.2c1.3,0,3.6,0.4,6.7,1.1c0.5,0.1,0.7,0.2,0.7,0.4c0,0.1,0,0.1-0.1,0.2c-1.2,1.5-1.9,2.7-2.2,3.3
			c-0.2,0.5-0.4,0.7-0.6,0.7c-0.1,0-0.1,0-0.2-0.1c-0.2-0.1-0.5-0.2-1.1-0.2c-1.6,0-3.6,0.3-5.9,0.9c-1.4,0.3-2.2,0.7-2.4,1
			l-1.8,4.4c-3.4,8.1-5.5,13-6.5,14.6L625.8,120.9z"/>
		<path class="st2" d="M653.4,110.9c-0.4,0-1.1-0.1-1.9-0.4c-0.8-0.3-1.7-0.6-2.6-1.1c-0.9-0.5-1.6-1-2.3-1.7
			c-0.6-0.6-0.9-1.3-1-2.1c0.1-1.9,0.8-4,2.1-6.5l0.1-0.2l0-0.2h-0.7c-1.1,0-1.6-0.1-1.6-0.4c0-0.2,0.2-0.5,0.7-1
			c0.2-0.2,0.5-0.6,1-1.2c0.9-1.3,1.5-2,1.8-2.1l1.4-0.4c0.4-0.1,1.6-1.8,3.5-5.1c0.1-0.1,0.3-0.4,0.5-0.8v-0.1
			c-0.5,0.1-0.8,0.3-0.8,0.6c0,0.1-0.1,0.2-0.2,0.2c-0.4,0-1.4-0.4-3-1.2c-1.8-0.8-2.7-1.4-2.7-1.9c0-0.1,0.1-0.2,0.2-0.3
			c2.7-1.3,5.8-2.3,9.3-3c3.9-0.8,7.3-1.1,10.2-1.1c3.6,0,5.4,0.5,5.5,1.5c0,0.5-0.1,0.9-0.1,1.3c0,0.7,0.1,1.3,0.1,1.8
			c0.1,0.5,0.1,1,0.1,1.5c0,0.7-0.3,1.1-0.8,1.1c-0.7,0-2.1-0.6-4.1-1.8c-0.1-0.1-0.3-0.1-0.6-0.1c-0.4,0-1,0-1.6,0.1
			c-0.8,0.1-1.9,0.2-3.4,0.2c-1,0-1.5,0.2-1.5,0.6c0,0.1,0,0.3,0.1,0.5c0.1,0.2,0.1,0.5,0.1,1c0,0.3-0.1,0.7-0.2,1.2
			c-0.1,0.3-0.2,0.5-0.3,0.5c-0.1,0-0.1,0-0.2-0.1c-0.1-0.1-0.2-0.1-0.4-0.1c-0.1,0-0.3,0.2-0.7,0.7c-0.3,0.4-0.5,0.7-0.6,0.9
			c0,0,0.1,0.1,0.3,0.1c0.5-0.1,0.9-0.1,1.1-0.1c0.4,0,0.8,0.1,1,0.4c0.2,0.2,0.4,0.6,0.6,1.1c0.4,0.8,0.9,1.6,1.5,2.5
			c0.3,0.4,0.5,0.7,0.5,0.9c0,0.2-0.3,0.3-1,0.3l-0.5,0c-1.2,0-2.4,0-3.6,0.1c-1.2,0-2.1,0.2-2.9,0.6c-0.7,0.3-1.4,1.1-2.1,2.3
			c-0.7,1.2-1.5,3-2.5,5.5l0,0.1c0,0.3,0.3,0.4,0.8,0.4c0.4,0,0.6-0.1,0.9-0.2c3-1.9,5-3.1,6-3.7c0.7-0.4,1.3-0.6,1.6-0.6
			c0.3,0,0.5,0.3,0.5,0.9c0,1.6,0.1,2.7,0.2,3.4l0,0.4c0,0.2-0.1,0.3-0.2,0.5c-0.3,0.3-1.7,1.3-4.2,2.7
			C655.5,110.2,654.2,110.8,653.4,110.9z"/>
		<path class="st2" d="M683.7,110.8l-0.3,0c-3.3-0.5-5-0.9-5-1c0-0.1,0-0.1,0.1-0.2c0-0.1-0.2-0.2-0.7-0.2c-0.5,0-1.3,0.1-2.4,0.3
			c-4.4,0.5-7.7,0.7-9.9,0.7c-2.4,0-4.7-0.2-6.9-0.6c-0.3,0-0.5-0.1-0.5-0.2c0-0.1,0.1-0.3,0.4-0.6c0.4-0.4,1-1.3,1.7-2.7
			c0.2-0.4,0.3-0.7,0.5-1c0.2-0.2,0.7-0.3,1.6-0.3l0.8,0c0.4,0,0.8,0.1,1.2,0.1c0.7,0,1.1-0.1,1.2-0.4c0-1.3,0.4-2.9,1.3-4.9
			s2.3-5,4.3-9.1c4.6-9.5,6.9-14.3,7-14.6c0.3-0.7,0.5-1,0.6-1c0.2,0,1.3,0.5,3.4,1.5c1.2,0.6,1.9,1.1,1.9,1.3
			c0,0.1-0.1,0.3-0.2,0.4c-0.2,0.3-0.3,0.7-0.3,1.2l-1.5,3c-6.9,13.3-10.3,20.6-10.3,21.8c0,0.1,0,0.2,0.1,0.2
			c4.5-0.2,7-0.3,7.4-0.3c0.6,0,1.1,0,1.6,0.1c0.5,0.1,0.8,0.3,1,0.6c1.7,2.8,2.6,4.6,2.6,5.5C684.4,110.4,684.1,110.7,683.7,110.8z
			"/>
		<path class="st2" d="M696,117.1c-0.1,0-0.2-0.1-0.4-0.3c-1.5-1.7-2.5-2.8-2.8-3.2c-0.3-0.5-0.5-1.1-0.5-1.7c0-0.6,0.1-1.3,0.3-2.2
			c0.1-0.6,0.2-1.2,0.3-2l-0.1-0.1c-2.5,2.4-4.5,3.6-6,3.6c-0.8,0-1.4-0.3-2.1-1c-1.6-1.8-2.8-3.1-3.4-4c-0.6-0.9-0.9-1.9-0.9-3.2
			c0-1.4,0.5-3.1,1.4-5.3c1.8-4.2,4.1-7.7,6.7-10.5c2.6-2.8,5.2-5,7.9-6.5c2.5-1.4,4.7-2.1,6.4-2.1c2.5,0,3.7,1.1,3.7,3.3
			c0,1.4-0.5,3.1-1.5,5.2c-0.7,1.5-1.1,2.7-1.3,3.4c-0.1,0.6-0.2,0.9-0.4,0.9c-0.1,0-0.1,0-0.2-0.1c-2.3-2.5-3.5-4.1-3.5-4.8
			c0-0.3,0.1-0.7,0.3-1l0.1-0.4c-0.2,0-0.6,0.2-1.2,0.6c-1.2,0.8-2.1,1.6-2.7,2.2c-4.6,4.2-7.7,8.3-9.2,12.1c-0.6,1.7-1,3-1,3.9
			c0,0.6,0.1,0.9,0.4,1c0.3,0,1.7-1.2,4.1-3.6c1.7-1.7,2.6-2.7,2.6-2.8c-0.1,0-0.2-0.1-0.3-0.1c-0.3,0-0.6,0-0.9,0.1
			c-0.4,0-0.7,0.1-1,0.1c-0.3,0-0.5-0.1-0.5-0.2c0-0.1,0.5-0.9,1.4-2.5c0.4-0.8,0.8-1.3,1.1-1.7c0.3-0.3,0.6-0.6,1-0.7
			c0.4-0.1,1.1-0.3,1.9-0.4c0.6-0.1,1.4-0.2,2.4-0.4c2.3-0.5,5.1-0.8,8.5-0.9c0.8,0,1.3,0.3,1.6,0.8c0.3,0.5,0.6,1.4,1,2.6
			c0.5,1.5,0.7,2.2,0.7,2.3c0,0.1-0.1,0.1-0.2,0.1s-0.3,0-0.5-0.1c-0.2,0-0.7-0.1-1.4-0.1c-0.9,0-2.2,0.1-3.8,0.1
			c-1.6,0-2.5,0.1-2.7,0.1s-0.3,0.2-0.4,0.4c-1.8,5.7-2.8,10-2.9,13c-0.1,0.8-0.1,1.3-0.3,1.5c-0.8,1.8-1.3,3.1-1.5,3.8
			C696.3,116.9,696.1,117.1,696,117.1z"/>
		<path class="st2" d="M711.7,110.9c-0.4,0-1.1-0.1-1.9-0.4c-0.8-0.3-1.7-0.6-2.6-1.1c-0.9-0.5-1.6-1-2.3-1.7
			c-0.6-0.6-0.9-1.3-1-2.1c0.1-1.9,0.8-4,2.1-6.5l0.1-0.2l0-0.2h-0.7c-1.1,0-1.6-0.1-1.6-0.4c0-0.2,0.2-0.5,0.7-1
			c0.2-0.2,0.5-0.6,1-1.2c0.9-1.3,1.5-2,1.8-2.1l1.4-0.4c0.4-0.1,1.6-1.8,3.5-5.1c0.1-0.1,0.3-0.4,0.5-0.8v-0.1
			c-0.5,0.1-0.8,0.3-0.8,0.6c0,0.1-0.1,0.2-0.2,0.2c-0.4,0-1.4-0.4-3-1.2c-1.8-0.8-2.7-1.4-2.7-1.9c0-0.1,0.1-0.2,0.2-0.3
			c2.7-1.3,5.8-2.3,9.3-3c3.9-0.8,7.3-1.1,10.2-1.1c3.6,0,5.4,0.5,5.5,1.5c0,0.5-0.1,0.9-0.1,1.3c0,0.7,0.1,1.3,0.1,1.8
			c0.1,0.5,0.1,1,0.1,1.5c0,0.7-0.3,1.1-0.8,1.1c-0.7,0-2.1-0.6-4.1-1.8c-0.1-0.1-0.3-0.1-0.6-0.1c-0.4,0-1,0-1.6,0.1
			c-0.8,0.1-1.9,0.2-3.4,0.2c-1,0-1.5,0.2-1.5,0.6c0,0.1,0,0.3,0.1,0.5c0.1,0.2,0.1,0.5,0.1,1c0,0.3-0.1,0.7-0.2,1.2
			c-0.1,0.3-0.2,0.5-0.3,0.5c-0.1,0-0.1,0-0.2-0.1c-0.1-0.1-0.2-0.1-0.4-0.1c-0.1,0-0.3,0.2-0.7,0.7c-0.3,0.4-0.5,0.7-0.6,0.9
			c0,0,0.1,0.1,0.3,0.1c0.5-0.1,0.9-0.1,1.1-0.1c0.4,0,0.8,0.1,1,0.4c0.2,0.2,0.4,0.6,0.6,1.1c0.4,0.8,0.9,1.6,1.5,2.5
			c0.3,0.4,0.5,0.7,0.5,0.9c0,0.2-0.3,0.3-1,0.3l-0.5,0c-1.2,0-2.4,0-3.6,0.1c-1.2,0-2.1,0.2-2.9,0.6c-0.7,0.3-1.4,1.1-2.1,2.3
			c-0.7,1.2-1.5,3-2.5,5.5l0,0.1c0,0.3,0.3,0.4,0.8,0.4c0.4,0,0.6-0.1,0.9-0.2c3-1.9,5-3.1,6-3.7c0.7-0.4,1.3-0.6,1.6-0.6
			c0.3,0,0.5,0.3,0.5,0.9c0,1.6,0.1,2.7,0.2,3.4l0,0.4c0,0.2-0.1,0.3-0.2,0.5c-0.3,0.3-1.7,1.3-4.2,2.7
			C713.8,110.2,712.6,110.8,711.7,110.9z"/>
		<path class="st2" d="M722.2,114.2c-0.2,0-0.3-0.1-0.3-0.4c-0.1-0.3-0.2-0.9-0.4-1.9c-0.1-0.7-0.2-1.2-0.2-1.5
			c0-1.5,0.8-4.3,2.5-8.4c1.7-4,3.2-7.5,4.6-10.4c1.4-2.9,2.6-5.3,3.8-7.4c1.2-2,2-3.1,2.3-3.1c1.1,0.4,2.1,0.6,3,0.6
			c0.2,0,0.4,0,0.6-0.1c0.1,0.2,0.2,0.3,0.5,0.3c0.3,0,0.4,0.1,0.4,0.4s0.1,0.5,0.4,0.5c0.2,0.1,0.3,0.4,0.3,1c0,0.4-0.1,1-0.2,2.1
			c-0.1,1-0.2,2-0.3,2.8c-0.1,0.9-0.4,2.3-0.9,4.2c-0.5,2-0.8,3.6-0.9,4.9c0.7-1.2,2.4-4.5,5.2-9.8c3.4-6.6,5.1-10.4,5.3-11.5
			c0-0.2,0.1-0.3,0.2-0.4c0.1-0.1,0.3-0.2,0.4-0.2c0.1,0,0.2,0,0.2,0.1c2,1.7,3.1,2.8,3.5,3.1c0.4,0.4,0.6,0.8,0.6,1.1
			c0,0.3-0.1,0.6-0.4,1c0,0.1-3.3,6.7-10,19.7c-2.6,5.2-4.2,7.9-4.6,8.1c-0.1,0.1-0.6,0.2-1.5,0.3c-1.8,0.4-3.1,0.6-3.8,0.6
			c-0.6,0-1.1-0.2-1.4-0.6s-0.5-1.1-0.5-2.1c0-2,0.7-6.5,2.2-13.5h-0.1c-3.4,6.9-5.2,10.5-5.2,10.7c0,0.1,0.1,0.1,0.3,0.1
			c0.2,0,0.3,0.1,0.3,0.2c0,0.1,0,0.2-0.1,0.4c-0.5,1.1-1,1.9-1.2,2.7c-0.4,0.9-0.7,1.6-1.1,2c-0.5,0.6-0.9,1.1-1.3,1.6
			C723.3,113.3,722.5,114.2,722.2,114.2z"/>
		<path class="st2" d="M758.9,112.8c-0.2,0-0.3-0.1-0.5-0.4c-0.6-1.7-1.1-2.9-1.5-3.5c-0.2-0.4-0.4-0.7-0.4-0.9
			c0-0.2,0.2-0.4,0.5-0.6c2.1-1.3,3.6-1.9,4.5-1.9c0.2,0,0.4,0,0.5,0.1l0.1,0c0-2.1,2.5-8.2,7.6-18.6c0.1-0.1,0.1-0.3,0.1-0.4
			c-0.4,0.2-0.7,0.3-1,0.4c-0.5-0.1-0.9-0.1-1.3-0.1c-0.3,0-0.5,0-0.5,0c-0.1,0-0.1-0.2-0.1-0.4l0-1.3l0-1.2c0-0.9,0.1-1.5,0.2-1.9
			c0.1-0.4,0.4-0.7,1-0.9c0.6-0.2,1.8-0.5,3.7-1c2.1-0.5,3.5-0.8,4-0.8c0.4,0,0.9,0.2,1.5,0.5c0.5,0.3,1.6,0.8,3.2,1.4
			c0.5,0.2,0.8,0.3,0.8,0.4c0,0.1-0.1,0.1-0.2,0.2c-1.1,0.9-1.9,1.5-2.5,1.8c-0.5,0.3-0.8,0.6-1.2,0.9c-0.3,0.3-0.6,0.7-1,1.2
			c-0.5,0.8-2.3,4.6-5.3,11.6c-2.2,4.9-3.4,7.5-3.4,7.8c0,0.2,0.3,0.3,0.8,0.4c0.6,0,1.4,0.2,2.5,0.6c0.3,0.1,0.4,0.2,0.4,0.4
			c0,0.3-0.9,1.3-2.7,2.9c-0.7,0.8-1.2,1.1-1.3,1.1c0,0-0.1-0.1-0.1-0.2c-0.1-0.2-0.3-0.3-0.5-0.3c-0.3,0-0.5,0.1-0.6,0.3
			c-0.1,0.4-0.3,0.6-0.4,0.6c-0.1,0-0.2-0.1-0.3-0.3c-0.2-0.2-0.4-0.4-0.6-0.4c-2.8,0.5-4.5,1.1-5.1,1.8
			C759.5,112.5,759.1,112.8,758.9,112.8z"/>
		<path class="st2" d="M772.5,114.2c-0.2,0-0.3-0.1-0.3-0.4c-0.1-0.3-0.2-0.9-0.4-1.9c-0.1-0.7-0.2-1.2-0.2-1.5
			c0-1.5,0.8-4.3,2.5-8.4c1.7-4,3.2-7.5,4.6-10.4c1.4-2.9,2.6-5.3,3.8-7.4c1.2-2,2-3.1,2.3-3.1c1.1,0.4,2.1,0.6,3,0.6
			c0.2,0,0.4,0,0.6-0.1c0.1,0.2,0.2,0.3,0.5,0.3c0.3,0,0.4,0.1,0.4,0.4s0.1,0.5,0.4,0.5c0.2,0.1,0.3,0.4,0.3,1c0,0.4-0.1,1-0.2,2.1
			c-0.1,1-0.2,2-0.3,2.8c-0.1,0.9-0.4,2.3-0.9,4.2c-0.5,2-0.8,3.6-0.9,4.9c0.7-1.2,2.4-4.5,5.2-9.8c3.4-6.6,5.1-10.4,5.3-11.5
			c0-0.2,0.1-0.3,0.2-0.4c0.1-0.1,0.3-0.2,0.4-0.2c0.1,0,0.2,0,0.2,0.1c2,1.7,3.1,2.8,3.5,3.1c0.4,0.4,0.6,0.8,0.6,1.1
			c0,0.3-0.1,0.6-0.4,1c0,0.1-3.3,6.7-10,19.7c-2.6,5.2-4.2,7.9-4.6,8.1c-0.1,0.1-0.6,0.2-1.5,0.3c-1.8,0.4-3.1,0.6-3.8,0.6
			c-0.6,0-1.1-0.2-1.4-0.6s-0.5-1.1-0.5-2.1c0-2,0.7-6.5,2.2-13.5h-0.1c-3.4,6.9-5.2,10.5-5.2,10.7c0,0.1,0.1,0.1,0.3,0.1
			c0.2,0,0.3,0.1,0.3,0.2c0,0.1,0,0.2-0.1,0.4c-0.5,1.1-1,1.9-1.2,2.7c-0.4,0.9-0.7,1.6-1.1,2c-0.5,0.6-0.9,1.1-1.3,1.6
			C773.5,113.3,772.7,114.2,772.5,114.2z"/>
		<path class="st2" d="M810.1,121c-0.1,0-0.2-0.1-0.2-0.3l0-0.8c0.1-0.5,0.1-1.2,0.1-2.2c0.1-2.1,0.7-4.8,1.9-8.3
			c0.6-1.9,0.9-3.1,0.9-3.5c0-0.2,0-0.4-0.1-0.5c-2.4-2.4-3.5-3.9-3.5-4.6c0-0.5,0.6-0.7,1.9-0.7c1.9-0.1,3.2-0.1,3.9-0.1l9.1-22.8
			c-0.5,0-2.1,0.7-4.8,2.2c-2.6,1.4-3.9,2.3-4.1,2.7c0.6,0.1,1.1,0.1,1.4,0.1l0.7,0c0.2,0,0.3,0.1,0.3,0.2c0,0.2-0.1,0.5-0.3,1
			c-0.2,0.6-0.6,1.7-1.1,3.2c-0.1,0.2-0.1,0.3-0.2,0.4c0,0.1-0.2,0.1-0.4,0.1c-0.7-0.1-1.3-0.1-1.6-0.1c-0.5,0-0.9,0-1.2-0.1
			c-0.5-0.1-1.4-1-2.7-2.4c-0.7-0.8-1.3-1.6-1.8-2.4c-0.1-0.1-0.1-0.2-0.2-0.2v-0.8c2.4-2.8,5.2-5,8.3-6.6c3.2-1.6,6.4-2.8,9.7-3.5
			c3.3-0.7,6.2-1.1,8.8-1.1c2.9,0,5,0.3,6.3,1c1.6,0.9,2.4,2.5,2.4,4.7c0,2.8-1.1,6.1-3.4,10.1c-2.3,3.9-5.2,7.7-8.9,11.2
			c-3.7,3.5-7.8,6.3-12.3,8.2c-0.2,0.1-0.3,0.2-0.4,0.4c-0.2,0.7-0.6,1.6-1,2.9c-0.9,2.8-1.3,4.5-1.3,5.1c0,0.2,0.1,0.3,0.3,0.3
			c0.5,0.2,0.8,0.3,0.8,0.4c-0.3,0.7-0.8,1.4-1.3,2.3c-1.4,2.2-3.4,3.8-5.8,4.7L810.1,121z M821.8,96.6c0.3,0,1.1-0.5,2.3-1.5
			c1.2-1,2.6-2.2,4.1-3.8c1.6-1.5,3.1-3.2,4.6-4.9c1.5-1.8,2.7-3.5,3.7-5.1c1-1.7,1.5-3.1,1.5-4.2c0-1.6-1.2-2.4-3.5-2.4
			c-0.5,0-1.6,0.1-3.2,0.3c-0.2,0.1-0.3,0.2-0.4,0.3c-0.4,0.9-0.8,1.8-1.3,2.5C828.1,80.6,825.4,86.8,821.8,96.6L821.8,96.6z"/>
		<path class="st2" d="M835.9,113.6c-0.2,0-0.6-0.8-1.2-2.4c-0.6-1.6-0.9-2.6-0.9-3.2c1.4-3.8,2.1-5.9,2.4-6.5
			c0.2-0.5,0.3-0.8,0.3-0.9c0-0.1-0.1-0.3-0.3-0.4c-0.8-0.6-1.2-1.1-1.2-1.4c0-0.2,0.1-0.4,0.3-0.6c1.1-0.9,1.8-1.5,2.3-1.5
			c0.2,0,0.4-0.2,0.5-0.4c0.1-0.2,0.4-0.8,0.9-1.9c1.6-3.3,2.6-5.2,2.9-5.7c0.1-0.1,0.1-0.3,0.1-0.4c0-0.1-0.7-0.8-2.1-2.1
			c-0.1-0.1-0.3-0.3-0.7-0.7c-0.1,0-0.1-0.1-0.1-0.2c0-0.5,0.9-1,2.6-1.7c1.7-0.7,3.8-1.3,6.3-1.9c3.2-0.7,5.9-1.1,8.1-1.1
			c2.6,0,4,0.6,4.2,1.7c0,0.7,0.1,1.3,0.1,1.9c0,1.1-0.1,2.1-0.3,3c-0.2,0.9-0.7,1.8-1.6,2.8c-0.9,0.9-2.2,1.9-3.9,3
			c-1.7,1.1-4.1,2.5-7.2,4.3c-0.3,0.2-0.5,0.3-0.6,0.3c-0.2,0.1-0.5,0.3-0.7,0.5l4.1,0.1c1.9,0,3.6,0.1,4.9,0.2s2.3,0.4,3,0.8
			c0.7,0.4,1,1.2,1,2.4c0,1-0.2,2.2-0.7,3.8c0,0.1-0.1,0.2-0.3,0.4c-0.1,0.1-0.3,0.2-0.5,0.2s-0.4-0.1-0.7-0.4
			c-0.2-0.2-0.4-0.4-0.6-0.5c-0.5-0.3-1.6-0.5-3.4-0.5c-3.8-0.3-6.6-0.5-8.4-0.6c-1.4-0.1-2.4-0.2-3-0.2c-0.5,0-0.9,0.1-1,0.3
			s-0.6,1.5-1.4,3.8c-0.1,0.4-0.3,1.1-0.7,1.9C837.4,111.7,836.5,113,835.9,113.6z M845.8,92.1l2.1-1.3c2.1-1.1,4-2.4,5.9-3.9
			c0,0-0.1-0.1-0.1-0.1c-2.8,0.3-4.5,0.5-5,0.7c-0.4,0.1-0.6,0.3-0.8,0.6c-1.4,2.3-2.1,3.5-2.1,3.8L845.8,92.1z"/>
		<path class="st2" d="M864.4,110.9c-0.4,0-1.1-0.1-1.9-0.4c-0.8-0.3-1.7-0.6-2.6-1.1c-0.9-0.5-1.6-1-2.3-1.7
			c-0.6-0.6-0.9-1.3-1-2.1c0.1-1.9,0.8-4,2.1-6.5l0.1-0.2l0-0.2h-0.7c-1.1,0-1.6-0.1-1.6-0.4c0-0.2,0.2-0.5,0.7-1
			c0.2-0.2,0.5-0.6,1-1.2c0.9-1.3,1.5-2,1.8-2.1l1.4-0.4c0.4-0.1,1.6-1.8,3.5-5.1c0.1-0.1,0.3-0.4,0.5-0.8v-0.1
			c-0.5,0.1-0.8,0.3-0.8,0.6c0,0.1-0.1,0.2-0.2,0.2c-0.4,0-1.4-0.4-3-1.2c-1.8-0.8-2.7-1.4-2.7-1.9c0-0.1,0.1-0.2,0.2-0.3
			c2.7-1.3,5.8-2.3,9.3-3c3.9-0.8,7.3-1.1,10.2-1.1c3.6,0,5.4,0.5,5.5,1.5c0,0.5-0.1,0.9-0.1,1.3c0,0.7,0.1,1.3,0.1,1.8
			c0.1,0.5,0.1,1,0.1,1.5c0,0.7-0.3,1.1-0.8,1.1c-0.7,0-2.1-0.6-4.1-1.8c-0.1-0.1-0.3-0.1-0.6-0.1c-0.4,0-1,0-1.6,0.1
			c-0.8,0.1-1.9,0.2-3.4,0.2c-1,0-1.5,0.2-1.5,0.6c0,0.1,0,0.3,0.1,0.5c0.1,0.2,0.1,0.5,0.1,1c0,0.3-0.1,0.7-0.2,1.2
			c-0.1,0.3-0.2,0.5-0.3,0.5c-0.1,0-0.1,0-0.2-0.1c-0.1-0.1-0.2-0.1-0.4-0.1c-0.1,0-0.3,0.2-0.7,0.7c-0.3,0.4-0.5,0.7-0.6,0.9
			c0,0,0.1,0.1,0.3,0.1c0.5-0.1,0.9-0.1,1.1-0.1c0.4,0,0.8,0.1,1,0.4c0.2,0.2,0.4,0.6,0.6,1.1c0.4,0.8,0.9,1.6,1.5,2.5
			c0.3,0.4,0.5,0.7,0.5,0.9c0,0.2-0.3,0.3-1,0.3l-0.5,0c-1.2,0-2.4,0-3.6,0.1c-1.2,0-2.1,0.2-2.9,0.6c-0.7,0.3-1.4,1.1-2.1,2.3
			c-0.7,1.2-1.5,3-2.5,5.5l0,0.1c0,0.3,0.3,0.4,0.8,0.4c0.4,0,0.6-0.1,0.9-0.2c3-1.9,5-3.1,6-3.7c0.7-0.4,1.3-0.6,1.6-0.6
			c0.3,0,0.5,0.3,0.5,0.9c0,1.6,0.1,2.7,0.2,3.4l0,0.4c0,0.2-0.1,0.3-0.2,0.5c-0.3,0.3-1.7,1.3-4.2,2.7
			C866.6,110.2,865.3,110.8,864.4,110.9z"/>
		<path class="st2" d="M890.2,119.1c-0.1,0-0.2,0-0.2-0.1c-1.2-1.8-2-3-2.3-3.5c-0.3-0.6-0.5-1.2-0.5-1.9c0-0.8,0.2-1.8,0.6-3
			c0.4-1.2,1.1-2.9,2-5.1c0.8-2,1.7-4.5,2.9-7.5c-0.3,0.1-0.7,0.6-1.4,1.5c-0.7,0.9-1.4,2-2.2,3.1c-0.8,1.1-1.4,2-1.8,2.7l-0.4,0.6
			l-0.1,0.1c-0.2,0-0.6-0.3-1-1c-0.5-0.7-0.9-1.4-1.3-2.1c-0.4-0.7-0.7-1.3-0.8-1.5s-0.2-0.7-0.2-1.1c0-0.6,0-1.2,0.1-1.9
			s0.1-1.4,0.1-1.9c-0.1,0.1-0.5,0.9-1.2,2.4c-0.6,1.2-0.9,2-1,2.3c0,0,0,0,0,0c-0.8,2-1.4,3.4-1.6,4.4c0,0.1-0.1,0.1-0.2,0.2
			c-0.7,0.4-1.7,1.3-3,2.5c-0.4,0.4-0.6,0.6-0.8,0.6c-0.1,0-0.2-0.4-0.4-1.1c-0.4-1.7-0.7-3-0.7-4.1c0-1.6,2.1-6.7,6.4-15.2
			c1.5-2.9,2.5-4.9,3-5.7c0-0.1,0.1-0.1,0.1-0.2c0-0.1,0.1-0.1,0.2-0.1c0.1,0,1.3,0.6,3.3,1.7c1,0.6,1.5,0.9,1.5,1.1
			c0,0.1,0,0.1-0.1,0.2c0,0-0.1,0.1-0.1,0.1c0,0,0,0.1,0,0.2c0,0.1,0,0.2,0.1,0.4c0.3,0.7,0.4,1.8,0.4,3.3l0,2.7c0,0.3,0,0.4,0,0.5
			l3.3-4c1.6-2,2.8-3.5,3.8-4.6c0.9-1.1,1.7-1.8,2.2-2.2c0.6-0.4,1.2-0.6,1.8-0.6c0.5,0,1.5,0.1,2.9,0.4c1,0.1,1.5,0.3,1.5,0.5
			c0,0.1,0,0.2-0.1,0.4c-1,2-2.4,5.3-4.3,9.9c-1.9,4.5-3.7,9-5.3,13.3c-1.6,4.3-2.5,6.9-2.5,7.6c0,0.1,0.1,0.2,0.2,0.2
			c0.1,0,0.2,0.1,0.2,0.2c0,0.2-0.2,0.5-0.6,1.1c-0.6,0.9-1.1,1.8-1.5,2.7C890.8,118.5,890.4,119.1,890.2,119.1z"/>
		<path class="st2" d="M899.2,112.8c-0.2,0-0.3-0.1-0.5-0.4c-0.6-1.7-1.1-2.9-1.5-3.5c-0.2-0.4-0.4-0.7-0.4-0.9
			c0-0.2,0.2-0.4,0.5-0.6c2.1-1.3,3.6-1.9,4.5-1.9c0.2,0,0.4,0,0.5,0.1l0.1,0c0-2.1,2.5-8.2,7.6-18.6c0.1-0.1,0.1-0.3,0.1-0.4
			c-0.4,0.2-0.7,0.3-1,0.4c-0.5-0.1-0.9-0.1-1.3-0.1c-0.3,0-0.5,0-0.5,0c-0.1,0-0.1-0.2-0.1-0.4l0-1.3l0-1.2c0-0.9,0.1-1.5,0.2-1.9
			c0.1-0.4,0.4-0.7,1-0.9c0.6-0.2,1.8-0.5,3.7-1c2.1-0.5,3.5-0.8,4-0.8c0.4,0,0.9,0.2,1.5,0.5c0.5,0.3,1.6,0.8,3.2,1.4
			c0.5,0.2,0.8,0.3,0.8,0.4c0,0.1-0.1,0.1-0.2,0.2c-1.1,0.9-1.9,1.5-2.5,1.8c-0.5,0.3-0.8,0.6-1.2,0.9c-0.3,0.3-0.6,0.7-1,1.2
			c-0.5,0.8-2.3,4.6-5.3,11.6c-2.2,4.9-3.4,7.5-3.4,7.8c0,0.2,0.3,0.3,0.8,0.4c0.6,0,1.4,0.2,2.5,0.6c0.3,0.1,0.4,0.2,0.4,0.4
			c0,0.3-0.9,1.3-2.7,2.9c-0.7,0.8-1.2,1.1-1.3,1.1c0,0-0.1-0.1-0.1-0.2c-0.1-0.2-0.3-0.3-0.5-0.3c-0.3,0-0.5,0.1-0.6,0.3
			c-0.1,0.4-0.3,0.6-0.4,0.6c-0.1,0-0.2-0.1-0.3-0.3c-0.2-0.2-0.4-0.4-0.6-0.4c-2.8,0.5-4.5,1.1-5.1,1.8
			C899.8,112.5,899.5,112.8,899.2,112.8z"/>
		<path class="st2" d="M932.9,109.8l-0.3-0.1c-1-0.4-1.8-0.6-2.4-0.9c-0.9-0.2-1.5-0.5-1.8-0.7s-0.5-0.5-0.5-0.9c0-0.6,0.4-2,1.2-4
			c0.4-1.1,0.7-2,0.9-2.7l-1.1,1.2c-3.2,3.8-5.5,5.6-7,5.6c-0.4,0-2.2-0.6-5.5-1.9c-0.7-0.3-1-1.2-1-2.7c0-3.1,1-7.3,3.1-12.7
			c1.8-4.9,3.7-8.5,5.5-10.7c0.4-0.5,0.8-0.9,1-1.2c0.3-0.5,0.5-0.7,0.7-0.7c0.2,0,0.4,0.7,0.9,2c0.6,1.4,0.8,2.6,0.8,3.4
			c0,0.6-0.1,1.1-0.4,1.5c-0.3,0.6-0.7,2-1.1,4c0,0.3-0.1,0.4-0.2,0.4c0,0-0.1,0-0.2-0.1c-0.1,0-0.1-0.1-0.2-0.1
			c-0.3,0-1.3,2.7-3.1,8.1c-0.7,2.1-1,3.5-1,4.2c0,0.3,0.1,0.5,0.3,0.5c0.4,0,1.4-0.8,2.7-2.3c1.2-1.3,4.9-5.7,11-13
			c0.5-0.6,1-1.5,1.5-2.6l0.6-0.6c1.9-2.1,2.9-3.2,3.2-3.4c0.4,0,0.9,1.2,1.5,3.4c0.3,1.2,0.4,1.9,0.4,2.1c0,0.2-0.2,0.5-0.4,0.8
			c-1.1,1.4-2.5,4.7-4.3,9.8c-1.6,4.7-2.6,7.6-3,8.5c-0.3,0.7-0.4,1.1-0.4,1.2c0,0.1,0,0.1,0.1,0.2s0.1,0.5,0.1,1.1
			c0,0.3-0.4,1.1-1.1,2.4C933.2,109.7,933,109.8,932.9,109.8z"/>
		<path class="st2" d="M951.7,119.1c-0.1,0-0.2,0-0.2-0.1c-1.2-1.8-2-3-2.3-3.5c-0.3-0.6-0.5-1.2-0.5-1.9c0-0.8,0.2-1.8,0.6-3
			c0.4-1.2,1.1-2.9,2-5.1c0.8-2,1.7-4.5,2.9-7.5c-0.3,0.1-0.7,0.6-1.4,1.5c-0.7,0.9-1.4,2-2.2,3.1c-0.8,1.1-1.4,2-1.8,2.7l-0.4,0.6
			l-0.1,0.1c-0.2,0-0.6-0.3-1-1c-0.5-0.7-0.9-1.4-1.3-2.1c-0.4-0.7-0.7-1.3-0.8-1.5s-0.2-0.7-0.2-1.1c0-0.6,0-1.2,0.1-1.9
			s0.1-1.4,0.1-1.9c-0.1,0.1-0.5,0.9-1.2,2.4c-0.6,1.2-0.9,2-1,2.3c0,0,0,0,0,0c-0.8,2-1.4,3.4-1.6,4.4c0,0.1-0.1,0.1-0.2,0.2
			c-0.7,0.4-1.7,1.3-3,2.5c-0.4,0.4-0.6,0.6-0.8,0.6c-0.1,0-0.2-0.4-0.4-1.1c-0.4-1.7-0.7-3-0.7-4.1c0-1.6,2.1-6.7,6.4-15.2
			c1.5-2.9,2.5-4.9,3-5.7c0-0.1,0.1-0.1,0.1-0.2c0-0.1,0.1-0.1,0.2-0.1c0.1,0,1.3,0.6,3.3,1.7c1,0.6,1.5,0.9,1.5,1.1
			c0,0.1,0,0.1-0.1,0.2c0,0-0.1,0.1-0.1,0.1c0,0,0,0.1,0,0.2c0,0.1,0,0.2,0.1,0.4c0.3,0.7,0.4,1.8,0.4,3.3l0,2.7c0,0.3,0,0.4,0,0.5
			l3.3-4c1.6-2,2.8-3.5,3.8-4.6c0.9-1.1,1.7-1.8,2.2-2.2c0.6-0.4,1.2-0.6,1.8-0.6c0.5,0,1.5,0.1,2.9,0.4c1,0.1,1.5,0.3,1.5,0.5
			c0,0.1,0,0.2-0.1,0.4c-1,2-2.4,5.3-4.3,9.9c-1.9,4.5-3.7,9-5.3,13.3c-1.6,4.3-2.5,6.9-2.5,7.6c0,0.1,0.1,0.2,0.2,0.2
			c0.1,0,0.2,0.1,0.2,0.2c0,0.2-0.2,0.5-0.6,1.1c-0.6,0.9-1.1,1.8-1.5,2.7C952.4,118.5,952,119.1,951.7,119.1z"/>
		<path class="st2" d="M979,120.6h-2c-0.3-0.2-1-0.5-2.3-0.7c-0.8-0.2-1.5-0.4-2.2-0.6c-0.7-0.2-1-0.5-1-0.8c0-0.1,0.1-0.2,0.2-0.4
			c1.2-1.4,2.1-2.5,2.7-3.3c0.1-0.2,0.2-0.4,0.3-0.5c0.1-0.1,0.4-0.2,0.9-0.3c1.2-0.3,3.2-0.9,5.8-1.8c-0.7-0.9-1.3-1.9-1.8-2.8
			c-0.4-0.9-0.7-1.9-0.7-3.1c0-2.8,1.5-7.1,4.4-13c0.3-0.5,0.4-0.8,0.4-0.9l0-0.1c-0.5-1.1-0.8-2-0.8-2.9c0-1.3,0.4-2.7,1.1-4.2
			c1.7-3.9,3.6-7.2,5.7-9.7c2.1-2.5,4.2-4.4,6.4-5.6c2.2-1.2,4.3-1.8,6.2-1.8c1.6,0,3,0.4,4.3,1.2c1.3,0.8,2.3,1.9,3,3.4
			c0.7,1.5,1.1,3.4,1.1,5.5c0,2.5-0.5,5.3-1.6,8.6c-1.1,3.2-2.9,6.8-5.4,10.8c-2.5,4-5.8,8.2-9.9,12.8c0.1,0.1,0.2,0.1,0.6,0.1
			c0.5,0,1,0.1,1.6,0.3c0.6,0.2,1.2,0.8,1.9,1.7c0.7,0.9,1.3,2.6,1.8,5c0,0.1-0.1,0.1-0.2,0.1c-0.2,0-0.8-0.2-1.8-0.5
			c-2.3-0.7-3.6-1.1-4-1.1c-1.6,0-4.5,0.4-8.7,1.3c-4.2,0.9-6.3,1.5-6.3,1.9C978.9,119.8,979,120.2,979,120.6z M985.4,109.4
			c0.1,0,0.2,0,0.3-0.1c1.2-0.7,2.6-1.8,4.2-3.3c1.6-1.5,3.3-3.3,5.1-5.4c1.8-2.1,3.4-4.4,4.9-6.9c1.5-2.5,2.8-5.2,3.7-8
			c1-2.8,1.4-5.6,1.4-8.5c0-1-0.1-2.1-0.2-3.1c0-0.1-0.2-0.3-0.5-0.5c-0.3-0.2-0.7-0.3-1.3-0.3c-1.5,0-3.3,0.8-5.3,2.4
			c-1.6,1.2-3.3,3.1-5.1,5.5c-1.2,1.6-1.9,2.6-2.1,3.1c2,0.1,3.4,0.2,4,0.3c0.6,0.1,0.9,0.2,0.9,0.4c0,0.1,0,0.1,0,0.2
			c0,0.1,0,0.2,0,0.3c0,0.4,0.2,0.8,0.6,1.1c0.1,0.1,0.2,0.3,0.2,0.4c0,0.2-0.2,0.6-0.5,1.1c-0.7,1.3-1.1,2.2-1.2,2.7
			c-0.1,0.5-0.2,0.7-0.4,0.7c-0.1,0-0.6-0.6-1.5-1.8c0,0,0,0-0.1,0c-0.1,0-0.3,0.1-0.6,0.4c-0.2,0.3-0.5,0.6-0.7,0.9
			c-0.2,0.3-0.5,0.7-0.6,0.9c-0.2,0.3-0.3,0.4-0.3,0.4c0.1,0.1,0.2,0.2,0.4,0.2c0.1,0,0.3,0.1,0.4,0.1c0,0.1-0.2,0.4-0.4,0.8
			c-0.2,0.4-0.5,0.8-0.7,1.3c-0.5,1.1-0.8,1.8-0.9,2.1s-0.2,0.4-0.3,0.4c-0.2,0-0.4-0.1-0.6-0.1c-0.3-0.1-0.4-0.1-0.6-0.1
			c-0.1,0-0.2,0.1-0.3,0.3c-1.7,3.7-2.6,6.9-2.6,9.7C984.6,108.5,984.9,109.3,985.4,109.4z"/>
		<path class="st2" d="M1023.9,109.8l-0.3-0.1c-1-0.4-1.8-0.6-2.4-0.9c-0.9-0.2-1.5-0.5-1.8-0.7s-0.5-0.5-0.5-0.9c0-0.6,0.4-2,1.2-4
			c0.4-1.1,0.7-2,0.9-2.7l-1.1,1.2c-3.2,3.8-5.5,5.6-7,5.6c-0.4,0-2.2-0.6-5.5-1.9c-0.7-0.3-1-1.2-1-2.7c0-3.1,1-7.3,3.1-12.7
			c1.8-4.9,3.7-8.5,5.5-10.7c0.4-0.5,0.8-0.9,1-1.2c0.3-0.5,0.5-0.7,0.7-0.7c0.2,0,0.4,0.7,0.9,2c0.6,1.4,0.8,2.6,0.8,3.4
			c0,0.6-0.1,1.1-0.4,1.5c-0.3,0.6-0.7,2-1.1,4c0,0.3-0.1,0.4-0.2,0.4c0,0-0.1,0-0.2-0.1c-0.1,0-0.1-0.1-0.2-0.1
			c-0.3,0-1.3,2.7-3.1,8.1c-0.7,2.1-1,3.5-1,4.2c0,0.3,0.1,0.5,0.3,0.5c0.4,0,1.4-0.8,2.7-2.3c1.2-1.3,4.9-5.7,11-13
			c0.5-0.6,1-1.5,1.5-2.6l0.6-0.6c1.9-2.1,2.9-3.2,3.2-3.4c0.4,0,0.9,1.2,1.5,3.4c0.3,1.2,0.4,1.9,0.4,2.1c0,0.2-0.2,0.5-0.4,0.8
			c-1.1,1.4-2.5,4.7-4.3,9.8c-1.6,4.7-2.6,7.6-3,8.5c-0.3,0.7-0.4,1.1-0.4,1.2c0,0.1,0,0.1,0.1,0.2s0.1,0.5,0.1,1.1
			c0,0.3-0.4,1.1-1.1,2.4C1024.2,109.7,1024.1,109.8,1023.9,109.8z"/>
		<path class="st2" d="M1043.8,113c-0.2,0-0.3-0.2-0.4-0.7c-0.5-2.4-0.9-4.8-1-7.2c0-0.7,0.1-1.5,0.2-2.4c0-0.6,0.1-1,0.1-1.3
			c-0.1,0.1-0.2,0.1-0.3,0.1c-0.1,0-0.2-0.1-0.3-0.3c-0.3-0.3-0.6-0.5-1-0.6c-0.2,0-0.5,0-0.8,0c-1.1,0-2.5,0.1-4.4,0.4
			c-0.2,0-0.3,0.1-0.4,0.2c-0.1,0.1-0.3,0.7-0.8,1.9c0,0.1-0.1,0.1-0.1,0.2c0,0.2,0.1,0.3,0.4,0.3s0.4,0.2,0.4,0.3
			c0,0.2-0.4,0.5-1.1,1.1c-0.3,0.2-0.6,0.5-1,0.9c-1.4,1.3-2.3,1.9-2.7,1.9c-0.1,0-0.2-0.1-0.2-0.2c-0.5-1.6-0.8-2.8-0.8-3.8
			c0-0.9-0.2-1.4-0.5-1.4c-0.3,0-0.4-0.1-0.4-0.1v-0.4c0-0.6,0.1-1.1,0.1-1.5c0-0.7,0-1.3-0.1-2c0-0.2-0.1-0.4-0.1-0.6
			c0-0.3,0.1-0.5,0.3-0.6l2.4-0.5c6.3-11.3,11.4-17.9,15.2-20c0.2-0.1,0.4-0.2,0.6-0.2c0.3,0,1.1,0.3,2.3,1l2,1.1
			c0.9,0.4,1.3,1.1,1.3,2.2c0,1.1-0.3,2.7-1,4.9c-1.7,5.4-3,12.2-4,20.3l0,0.9c0,0.6,0.1,1.3,0.2,1.9c0,0.3,0.1,0.5,0.1,0.7
			c0,0.3-0.1,0.5-0.3,0.7c-1.2,0.8-2,1.5-2.6,2.1C1044.4,112.8,1044,113,1043.8,113z M1043.1,96.3c0.2,0,0.3-0.2,0.5-0.7
			c0.1-0.4,0.3-1.3,0.6-2.5c0.3-1.7,1-4.6,2-8.7c0-0.1,0-0.1,0-0.1c0,0,0-0.1,0-0.1c-3,3.4-5.6,7.2-8,11.3l1.7-0.1
			c1.1,0,2,0.2,2.7,0.7C1042.7,96.3,1042.9,96.3,1043.1,96.3z"/>
		<path class="st2" d="M1069.2,110.8l-0.3,0c-3.3-0.5-5-0.9-5-1c0-0.1,0-0.1,0.1-0.2c0-0.1-0.2-0.2-0.7-0.2c-0.5,0-1.3,0.1-2.4,0.3
			c-4.4,0.5-7.7,0.7-9.9,0.7c-2.4,0-4.7-0.2-6.9-0.6c-0.3,0-0.5-0.1-0.5-0.2c0-0.1,0.1-0.3,0.4-0.6c0.4-0.4,1-1.3,1.7-2.7
			c0.2-0.4,0.3-0.7,0.5-1c0.2-0.2,0.7-0.3,1.6-0.3l0.8,0c0.4,0,0.8,0.1,1.2,0.1c0.7,0,1.1-0.1,1.2-0.4c0-1.3,0.4-2.9,1.3-4.9
			s2.3-5,4.3-9.1c4.6-9.5,6.9-14.3,7-14.6c0.3-0.7,0.5-1,0.6-1c0.2,0,1.3,0.5,3.4,1.5c1.2,0.6,1.9,1.1,1.9,1.3
			c0,0.1-0.1,0.3-0.2,0.4c-0.2,0.3-0.3,0.7-0.3,1.2l-1.5,3c-6.9,13.3-10.3,20.6-10.3,21.8c0,0.1,0,0.2,0.1,0.2
			c4.5-0.2,7-0.3,7.4-0.3c0.6,0,1.1,0,1.6,0.1c0.5,0.1,0.8,0.3,1,0.6c1.7,2.8,2.6,4.6,2.6,5.5
			C1069.9,110.4,1069.6,110.7,1069.2,110.8z"/>
		<path class="st2" d="M1064.6,112.8c-0.2,0-0.3-0.1-0.5-0.4c-0.6-1.7-1.1-2.9-1.5-3.5c-0.2-0.4-0.4-0.7-0.4-0.9
			c0-0.2,0.2-0.4,0.5-0.6c2.1-1.3,3.6-1.9,4.5-1.9c0.2,0,0.4,0,0.5,0.1l0.1,0c0-2.1,2.5-8.2,7.6-18.6c0.1-0.1,0.1-0.3,0.1-0.4
			c-0.4,0.2-0.7,0.3-1,0.4c-0.5-0.1-0.9-0.1-1.3-0.1c-0.3,0-0.5,0-0.5,0c-0.1,0-0.1-0.2-0.1-0.4l0-1.3l0-1.2c0-0.9,0.1-1.5,0.2-1.9
			c0.1-0.4,0.4-0.7,1-0.9c0.6-0.2,1.8-0.5,3.7-1c2.1-0.5,3.5-0.8,4-0.8c0.4,0,0.9,0.2,1.5,0.5c0.5,0.3,1.6,0.8,3.2,1.4
			c0.5,0.2,0.8,0.3,0.8,0.4c0,0.1-0.1,0.1-0.2,0.2c-1.1,0.9-1.9,1.5-2.5,1.8c-0.5,0.3-0.8,0.6-1.2,0.9c-0.3,0.3-0.6,0.7-1,1.2
			c-0.5,0.8-2.3,4.6-5.3,11.6c-2.2,4.9-3.4,7.5-3.4,7.8c0,0.2,0.3,0.3,0.8,0.4c0.6,0,1.4,0.2,2.5,0.6c0.3,0.1,0.4,0.2,0.4,0.4
			c0,0.3-0.9,1.3-2.7,2.9c-0.7,0.8-1.2,1.1-1.3,1.1c0,0-0.1-0.1-0.1-0.2c-0.1-0.2-0.3-0.3-0.5-0.3c-0.3,0-0.5,0.1-0.6,0.3
			c-0.1,0.4-0.3,0.6-0.4,0.6c-0.1,0-0.2-0.1-0.3-0.3c-0.2-0.2-0.4-0.4-0.6-0.4c-2.8,0.5-4.5,1.1-5.1,1.8
			C1065.2,112.5,1064.8,112.8,1064.6,112.8z"/>
		<path class="st2" d="M1084.8,111.7c-0.1,0-0.2,0-0.3-0.1c-0.8-0.6-2.1-1.2-3.7-1.9c-0.1,0-0.1-0.1-0.1-0.4c0-0.9,0.6-3.1,1.9-6.7
			s2.5-6.7,3.8-9.5c1.3-2.8,2.3-4.9,3.2-6.4c0-0.1,0.1-0.2,0.1-0.3c-0.5,0-2.2,0.3-5.1,0.9l-1.8,0.3c-0.2,0-0.4-0.1-0.5-0.2
			c-0.3-0.2-1.1-1.1-2.5-2.5c-0.8-0.8-1.2-1.3-1.2-1.3c0-0.1,0.2-0.2,0.6-0.3c0.4-0.1,0.9-0.3,1.7-0.6c2.2-0.9,6.9-1.9,14-3
			c3.5-0.6,6.1-0.8,7.8-0.8c1,0,1.6,0.1,1.7,0.4c-0.1,0.7-0.2,1.7-0.4,3.1c-0.3,2.1-0.8,3.2-1.5,3.3c-0.2,0-0.4-0.1-0.7-0.4
			c-0.1-0.2-0.4-0.3-0.7-0.3c-0.4,0-0.9,0-1.6,0.1c-0.2,0-0.8,0.1-1.9,0.2c-1.1,0.1-1.7,0.2-1.8,0.3c-0.1,0.1-0.1,0.2-0.1,0.4
			c-0.1,0.4-0.2,0.8-0.5,1.4c-3.8,6.6-6.8,13.6-9,21.1c-0.3,1-0.6,1.8-0.8,2.3C1085.3,111.4,1085.1,111.7,1084.8,111.7z"/>
		<path class="st2" d="M1111.2,113c-0.2,0-0.3-0.2-0.4-0.7c-0.5-2.4-0.9-4.8-1-7.2c0-0.7,0.1-1.5,0.2-2.4c0-0.6,0.1-1,0.1-1.3
			c-0.1,0.1-0.2,0.1-0.3,0.1c-0.1,0-0.2-0.1-0.3-0.3c-0.3-0.3-0.6-0.5-1-0.6c-0.2,0-0.5,0-0.8,0c-1.1,0-2.5,0.1-4.4,0.4
			c-0.2,0-0.3,0.1-0.4,0.2c-0.1,0.1-0.3,0.7-0.8,1.9c0,0.1-0.1,0.1-0.1,0.2c0,0.2,0.1,0.3,0.4,0.3s0.4,0.2,0.4,0.3
			c0,0.2-0.4,0.5-1.1,1.1c-0.3,0.2-0.6,0.5-1,0.9c-1.4,1.3-2.3,1.9-2.7,1.9c-0.1,0-0.2-0.1-0.2-0.2c-0.5-1.6-0.8-2.8-0.8-3.8
			c0-0.9-0.2-1.4-0.5-1.4c-0.3,0-0.4-0.1-0.4-0.1v-0.4c0-0.6,0.1-1.1,0.1-1.5c0-0.7,0-1.3-0.1-2c0-0.2-0.1-0.4-0.1-0.6
			c0-0.3,0.1-0.5,0.3-0.6l2.4-0.5c6.3-11.3,11.4-17.9,15.2-20c0.2-0.1,0.4-0.2,0.6-0.2c0.3,0,1.1,0.3,2.3,1l2,1.1
			c0.9,0.4,1.3,1.1,1.3,2.2c0,1.1-0.3,2.7-1,4.9c-1.7,5.4-3,12.2-4,20.3l0,0.9c0,0.6,0.1,1.3,0.2,1.9c0,0.3,0.1,0.5,0.1,0.7
			c0,0.3-0.1,0.5-0.3,0.7c-1.2,0.8-2,1.5-2.6,2.1C1111.8,112.8,1111.4,113,1111.2,113z M1110.4,96.3c0.2,0,0.3-0.2,0.5-0.7
			c0.1-0.4,0.3-1.3,0.6-2.5c0.3-1.7,1-4.6,2-8.7c0-0.1,0-0.1,0-0.1c0,0,0-0.1,0-0.1c-3,3.4-5.6,7.2-8,11.3l1.7-0.1
			c1.1,0,2,0.2,2.7,0.7C1110.1,96.3,1110.3,96.3,1110.4,96.3z"/>
		<path class="st2" d="M1123.3,111.7c-0.1,0-0.2,0-0.3-0.1c-0.8-0.6-2.1-1.2-3.7-1.9c-0.1,0-0.1-0.1-0.1-0.4c0-0.9,0.6-3.1,1.9-6.7
			s2.5-6.7,3.8-9.5c1.3-2.8,2.3-4.9,3.2-6.4c0-0.1,0.1-0.2,0.1-0.3c-0.5,0-2.2,0.3-5.1,0.9l-1.8,0.3c-0.2,0-0.4-0.1-0.5-0.2
			c-0.3-0.2-1.1-1.1-2.5-2.5c-0.8-0.8-1.2-1.3-1.2-1.3c0-0.1,0.2-0.2,0.6-0.3c0.4-0.1,0.9-0.3,1.7-0.6c2.2-0.9,6.9-1.9,14-3
			c3.5-0.6,6.1-0.8,7.8-0.8c1,0,1.6,0.1,1.7,0.4c-0.1,0.7-0.2,1.7-0.4,3.1c-0.3,2.1-0.8,3.2-1.5,3.3c-0.2,0-0.4-0.1-0.7-0.4
			c-0.1-0.2-0.4-0.3-0.7-0.3c-0.4,0-0.9,0-1.6,0.1c-0.2,0-0.8,0.1-1.9,0.2c-1.1,0.1-1.7,0.2-1.8,0.3c-0.1,0.1-0.1,0.2-0.1,0.4
			c-0.1,0.4-0.2,0.8-0.5,1.4c-3.8,6.6-6.8,13.6-9,21.1c-0.3,1-0.6,1.8-0.8,2.3C1123.8,111.4,1123.6,111.7,1123.3,111.7z"/>
	</g>
</g>
</svg>
